<?xml version="1.0" encoding="utf-8"?>
<!-- Generator: Adobe Illustrator 22.0.1, SVG Export Plug-In . SVG Version: 6.00 Build 0)  -->
<svg version="1.1" id="Layer_1" xmlns="http://www.w3.org/2000/svg" xmlns:xlink="http://www.w3.org/1999/xlink" x="0px" y="0px"
	 viewBox="0 0 1280 1024" style="enable-background:new 0 0 1280 1024;" xml:space="preserve">
<style type="text/css">
	.st0{fill:#9F96D9;stroke:#6B5BA6;stroke-width:3;stroke-miterlimit:10;}
	.st1{fill:none;stroke:#18CDCA;stroke-width:3;stroke-miterlimit:10;}
    .hover_group:hover
  {
    opacity: 0.5;
  }
</style>
<g class="hover_group" onmouseover="evt.target.setAttribute('opacity', '0.7');" onmouseout="evt.target.setAttribute('opacity', '1.0');">
	<path class="st0" d="M347,145H227.5c-6.6,0-12-5.4-12-12V84c0-6.6,5.4-12,12-12H347c6.6,0,12,5.4,12,12v49
		C359,139.6,353.6,145,347,145z"/>
	<path class="st0" d="M635,145H515.5c-6.6,0-12-5.4-12-12V84c0-6.6,5.4-12,12-12H635c6.6,0,12,5.4,12,12v49
		C647,139.6,641.6,145,635,145z"/>
	<circle class="st0" cx="827.5" cy="108.5" r="36.5"/>
	<line class="st0" x1="359" y1="108.5" x2="503.5" y2="108.5"/>
	<line class="st0" x1="647" y1="107.8" x2="791.5" y2="107.8"/>
	<line class="st0" x1="864.5" y1="107.8" x2="1009" y2="107.8"/>
</g>
<g class="hover_group" onmouseover="evt.target.setAttribute('opacity', '0.7');" onmouseout="evt.target.setAttribute('opacity', '1.0');">
	<path class="st0" d="M347,288H227.5c-6.6,0-12-5.4-12-12v-49c0-6.6,5.4-12,12-12H347c6.6,0,12,5.4,12,12v49
		C359,282.6,353.6,288,347,288z"/>
	<path class="st0" d="M635,288H515.5c-6.6,0-12-5.4-12-12v-49c0-6.6,5.4-12,12-12H635c6.6,0,12,5.4,12,12v49
		C647,282.6,641.6,288,635,288z"/>
	<circle class="st0" cx="828" cy="251.5" r="36.5"/>
	<line class="st0" x1="359" y1="251.5" x2="503.5" y2="251.5"/>
	<line class="st0" x1="647" y1="250.8" x2="791.5" y2="250.8"/>
	<line class="st0" x1="864.5" y1="250.8" x2="1009" y2="250.8"/>
</g>
<g class="hover_group" >
	
		<path onmouseover="evt.target.setAttribute('opacity', '0.5');" onmouseout="evt.target.setAttribute('opacity', '1.0');" class="st0" d="
		M347,431H227.5c-6.6,0-12-5.4-12-12v-49c0-6.6,5.4-12,12-12H347c6.6,0,12,5.4,12,12v49C359,425.6,353.6,431,347,431z"/>
	<path class="st0" d="M635,431H515.5c-6.6,0-12-5.4-12-12v-49c0-6.6,5.4-12,12-12H635c6.6,0,12,5.4,12,12v49
		C647,425.6,641.6,431,635,431z"/>
	<circle class="st0" cx="828" cy="396" r="36.5"/>
	<line class="st0" x1="359" y1="396" x2="503.5" y2="396"/>
	<line class="st0" x1="647" y1="395.2" x2="791.5" y2="395.2"/>
	<line class="st0" x1="864.5" y1="395.2" x2="1009" y2="395.2"/>
</g>
<path class="st1" d="M1140,432.5h-119c-6.6,0-12-5.4-12-12V84c0-6.6,5.4-12,12-12h119c6.6,0,12,5.4,12,12v336.5
	C1152,427.1,1146.6,432.5,1140,432.5z"/>
</svg>
