<svg version="1.1" xmlns="http://www.w3.org/2000/svg" xmlns:xlink="http://www.w3.org/1999/xlink" width="600" height="600" style="width: 600px; height: 600px;"><defs/><g><g transform="scale(1,1) translate(0.5,0.5)"><rect fill="#FFFFFF" stroke="none" x="0" y="0" width="600" height="600"/><rect fill="#ffffff" stroke="none" x="0" y="0" width="600" height="600"/><rect fill="#FFFFFF" stroke="none" x="52" y="5" width="518" height="571"/><rect fill="#ffffff" stroke="none" x="52" y="5" width="518" height="571"/><g><rect fill="none" stroke="#e5e5e5" x="52" y="5" width="518" height="571" stroke-miterlimit="10"/></g><g><g><path fill="none" stroke="none"/><path fill="none" stroke="#5c97bf" paint-order="fill stroke markers" d=" M 75.54545454545473 549.8031083284889 L 75.69658069786442 543.9500799975307 L 76.14995915509394 543.1496030990684 L 76.30108530750385 546.4763557137786 L 76.45221145991377 545.6465035162902 L 76.60333761232368 544.2438329877921 L 76.75446376473337 545.5363461449422 L 77.20784222196289 548.5766895941476 L 77.35896837437281 548.3123119029124 L 77.51009452678272 549.8692027512977 L 77.66122067919264 548.9438808319743 L 77.81234683160233 550.0454545454545 L 78.41685144124176 548.8924740586785 L 78.56797759365168 548.3637186762081 L 78.71910374606159 548.3563748514515 L 78.87022989847128 546.138539774978 L 79.3236083557008 544.54492980281 L 79.47473450811071 541.6147437249525 L 79.62586066052063 541.2402086623692 L 79.77698681293032 539.7934751853319 L 79.92811296534023 537.2084488710317 L 80.38149142256975 535.8351536415596 L 80.53261757497967 536.9514150045529 L 80.68374372738958 536.5548484677 L 80.83486987979927 534.7629552271055 L 80.98599603220919 535.4899938780025 L 81.4393744894387 536.6429743647784 L 81.59050064184862 530.3272850741585 L 81.74162679425854 527.2281910269007 L 81.89275294666822 528.3150770908679 L 82.04387909907814 526.1266173134205 L 82.49725755630766 524.3053487737999 L 82.64838370871757 521.8745427793868 L 82.79950986112749 522.8218961729799 L 82.95063601353718 521.5220391910732 L 83.1017621659471 522.3445475638051 L 83.55514062317661 524.1584722786693 L 83.70626677558653 522.5868937807708 L 83.85739292799644 520.0165551159836 L 84.00851908040613 519.2087343927648 L 84.15964523281605 517.6591873691359 L 84.61302369004557 513.9505558670858 L 84.76414984245548 514.8465024873831 L 84.9152759948654 520.3176519310015 L 85.06640214727508 513.788991722442 L 85.217528299685 496.8614756586292 L 85.67090675691452 485.86776999809655 L 85.82203290932443 489.98031186175604 L 85.97315906173435 486.91793693828106 L 86.12428521414404 481.534913391741 L 86.27541136655395 483.48837077697925 L 86.72878982378347 479.53004923320697 L 86.87991597619339 480.38193290496497 L 87.0310421286033 482.73195682705614 L 87.18216828101299 487.850602682361 L 87.3332944334229 499.12337368364194 L 87.78667289065243 496.7733497615508 L 87.93779904306234 499.6007222928167 L 88.08892519547226 500.21760357236565 L 88.24005134788194 489.08436524145884 L 88.39117750029186 489.8334353666254 L 88.84455595752138 487.72575766149987 L 88.9956821099313 496.78069358630734 L 89.14680826234098 496.81006888533346 L 89.2979344147509 500.4526059645748 L 89.44906056716081 499.08665455985926 L 89.90243902439033 502.24449920516923 L 90.05356517680025 500.4672936140878 L 90.20469132920994 495.1503644903566 L 90.50694363402977 491.750173628081 L 90.96032209125929 490.5310987184962 L 91.1114482436692 489.8481230161384 L 91.26257439607889 491.3315756169585 L 91.4137005484888 491.7428298033244 L 91.56482670089872 491.0084473276709 L 92.01820515812824 494.02675930260676 L 92.16933131053815 497.5958581342827 L 92.32045746294784 498.6607127239803 L 92.47158361535776 496.1270931829757 L 92.62270976776767 497.43429398963895 L 93.07608822499719 498.31555296042313 L 93.22721437740711 492.2642413610384 L 93.3783405298168 491.46376446257614 L 93.52946668222671 493.89457045698913 L 93.68059283463663 491.24344971988 L 94.13397129186615 487.61560029015186 L 94.28509744427606 488.5482660342318 L 94.43622359668575 486.67559072131536 L 94.58734974909567 485.50057876026983 L 95.1918543587351 482.55570503289937 L 95.34298051114502 481.9314799285939 L 95.4941066635547 481.8286663820024 L 95.64523281596462 478.377068746431 L 95.79635896837453 481.90944845432426 L 96.24973742560405 474.6243742958417 L 96.40086357801397 480.6536544209568 L 96.55198973042366 481.3806930718538 L 96.70311588283357 485.02323015109505 L 96.85424203524349 481.1310030301316 L 97.307620492473 480.24240023459083 L 97.45874664488292 481.35866159758416 L 97.60987279729261 480.00739784238175 L 97.76099894970253 480.04411696616444 L 97.91212510211244 476.63658227913226 L 98.51662971175165 473.75045914981405 L 98.66775586416156 478.597383489127 L 98.81888201657148 481.0795962568358 L 98.9700081689814 485.22151341952144 L 99.42338662621091 490.77344493546184 L 99.5745127786206 493.4172218478144 L 99.72563893103052 484.51650624289414 L 99.87676508344043 485.3683899146522 L 100.02789123585035 483.7086855196753 L 100.48126969307987 479.8311460482249 L 100.63239584548955 482.5630488576559 L 100.78352199789947 472.2376312499679 L 100.93464815030939 468.63915711926575 L 101.0857743027193 473.41264321101346 L 101.53915275994882 479.53004923320697 L 101.69027891235851 477.6133109717514 L 101.84140506476842 482.798051249865 L 101.99253121717834 485.4418281622175 L 102.14365736958825 485.86776999809655 L 102.59703582681777 481.76257195919356 L 102.74816197922746 480.11755521372976 L 102.89928813163738 477.78221894115165 L 103.05041428404729 478.15675400373493 L 103.20154043645698 478.1200348799523 L 103.80604504609641 482.9522715697522 L 103.95717119850633 481.05756478256626 L 104.10829735091625 484.7735401093729 L 104.25942350332593 486.9913751858464 L 104.71280196055568 485.43448433746096 L 104.86392811296537 486.8518425154722 L 105.01505426537528 487.49809909404723 L 105.1661804177852 486.1541791636014 L 105.31730657019489 486.96934371157676 L 105.77068502742463 484.83229070742516 L 105.92181117983432 487.4834114445342 L 106.07293733224424 490.3107839758001 L 106.22406348465415 491.3168879674454 L 106.37518963706384 492.91784176437 L 106.82856809429359 494.98145652095627 L 106.97969424670327 492.3229919590907 L 107.13082039911319 494.5334832108077 L 107.2819465515231 491.8236118756463 L 107.4330727039328 491.2728250189062 L 107.88645116116231 490.65594373935727 L 108.03757731357223 492.3303357838472 L 108.18870346598214 492.05127044309893 L 108.33982961839206 491.8529871746724 L 108.94433422803127 490.2593772025044 L 109.09546038044118 491.61798478246334 L 109.2465865328511 490.97172820388823 L 109.39771268526101 490.9276652553491 L 109.5488388376707 491.2728250189062 L 110.00221729490022 487.4173170217254 L 110.15334344731014 485.008542501582 L 110.30446959972005 484.5311938924072 L 110.45559575212997 481.1970974529404 L 110.60672190453965 482.45289148630786 L 111.06010036176917 481.58632016503674 L 111.21122651417909 481.05022095780964 L 111.362352666589 481.80663490773276 L 111.51347881899892 482.8935209716999 L 111.66460497140861 487.63028793966487 L 112.11798342863813 486.1835544626275 L 112.26910958104804 482.9302400954826 L 112.42023573345796 478.0098775086043 L 112.57136188586787 473.51545675760497 L 112.72248803827756 465.00396386478104 L 113.17586649550708 459.33453115273613 L 113.326992647917 462.8448793863598 L 113.47811880032691 462.0884654364367 L 113.6292449527366 462.3308116534024 L 113.78037110514651 461.92690129179294 L 114.23374956237603 460.2451654225465 L 114.38487571478595 457.38107376749787 L 114.53600186719586 455.6846502487383 L 114.68712801960555 456.80091161173164 L 114.83825417201547 456.03715383705196 L 115.29163262924499 457.50591878835894 L 115.4427587816549 456.1987179816957 L 115.59388493406482 453.63572314166515 L 115.7450110864745 455.52308610409455 L 115.89613723888442 455.14120721675476 L 116.34951569611394 453.8119749358219 L 116.50064184852386 452.2844593864627 L 116.65176800093377 447.8561330582722 L 116.80289415334346 447.8414454087591 L 116.95402030575337 446.0568959929211 L 117.4073987629829 435.89304252987694 L 117.55852491539281 435.4891321682675 L 117.70965106780272 431.9567524603742 L 117.86077722021241 433.13910824617636 L 118.01190337262233 428.1453074117327 L 118.61640798226176 419.8688169111179 L 118.76753413467168 411.988892947356 L 118.91866028708137 412.0623311949214 L 119.06978643949128 417.67301330891394 L 119.5231648967208 409.82980846893474 L 119.67429104913072 408.22885467201013 L 119.82541720154063 418.1870810418714 L 119.97654335395032 413.22999933121037 L 120.12766950636023 416.0279965634502 L 120.58104796358975 415.8444009445368 L 120.73217411599967 419.0756838374121 L 120.88330026840958 421.682741625982 L 121.03442642081927 419.74397189025683 L 121.18555257322919 417.6436380098878 L 121.6389310304587 412.94359016570553 L 121.79005718286862 412.10639414346053 L 121.94118333527854 411.03419572900646 L 122.09230948768823 410.73309891398856 L 122.24343564009814 405.1958550475613 L 122.69681409732766 400.1653350893349 L 122.84794024973758 401.7075382882072 L 122.99906640214726 408.5226076622715 L 123.15019255455718 407.4724407220871 L 123.3013187069671 409.60214990148216 L 123.90582331660653 406.3268040600676 L 124.05694946901622 409.4038666330557 L 124.20807562142613 406.45164908092875 L 124.35920177383605 405.94492517272784 L 124.81258023106557 408.05994670260986 L 124.96370638347548 409.2129271893858 L 125.11483253588517 404.01349926175914 L 125.26595868829509 402.5227028361826 L 125.417084840705 402.30238809348657 L 125.87046329793452 403.5141191783148 L 126.02158945034444 395.90591673054473 L 126.17271560275412 394.3637135316724 L 126.32384175516404 392.93901152890464 L 126.47496790757396 401.4137852979458 L 126.92834636480347 406.2239905134761 L 127.07947251721339 406.04773871931934 L 127.23059866962308 405.43085743977036 L 127.381724822033 407.94978933126185 L 127.53285097444291 412.16514474151285 L 127.98622943167243 409.3377722102469 L 128.13735558408234 403.7711530447935 L 128.28848173649203 405.1591359237786 L 128.43960788890195 404.8433514592476 L 128.59073404131186 408.7943291782633 L 129.04411249854138 409.60214990148216 L 129.1952386509513 409.3671475092731 L 129.34636480336098 413.6926602908721 L 129.4974909557709 414.88970372618724 L 129.64861710818082 410.725755089232 L 130.10199556541033 414.9264228499699 L 130.25312171782025 413.7146917651417 L 130.40424787022994 414.11860212675106 L 130.55537402263985 417.8712965773404 L 130.70650017504977 417.8639527525839 L 131.1598786322793 422.26290378174826 L 131.3110047846892 418.17239339235834 L 131.4621309370989 415.97658979015443 L 131.6132570895088 415.96190214064137 L 131.76438324191872 415.2348634897444 L 132.21776169914824 411.65842083331194 L 132.36888785155793 412.52499215458306 L 132.52001400396784 413.457657898663 L 132.67114015637776 413.2740622797496 L 132.82226630878768 411.65842083331194 L 133.42677091842688 412.6424933506876 L 133.5778970708368 406.94368533961654 L 133.7290232232467 406.56180645227676 L 133.88014937565663 403.84459129235887 L 134.33352783288615 396.02341792664924 L 134.48465398529584 394.5987159238815 L 134.63578013770575 400.9731558125537 L 134.78690629011567 401.25222115330206 L 134.93803244252558 403.0294267443835 L 135.3914108997551 400.39299365678744 L 135.5425370521648 397.3673378570951 L 135.6936632045747 394.43715177923775 L 135.84478935698462 394.82637449133404 L 135.99591550939454 391.89618841347664 L 136.44929396662405 392.68932148718244 L 136.60042011903374 392.93901152890464 L 136.75154627144366 398.7700083855933 L 136.90267242385357 396.11154382372763 L 137.05379857626326 391.0883676902579 L 137.507177033493 389.4580385943071 L 137.6583031859027 395.09809600732586 L 137.8094293383126 395.3110669252654 L 137.96055549072253 393.8129266749322 L 138.11168164313221 393.63667488077544 L 138.56506010036196 395.3551298738046 L 138.71618625277165 398.69657013802794 L 138.86731240518156 402.4639522381303 L 139.01843855759148 405.05632237718714 L 139.16956471000117 406.01101959553665 L 139.62294316723091 399.50439086124675 L 139.7740693196406 400.7675287193708 L 139.92519547205052 396.78717570132886 L 140.07632162446043 400.82627931742303 L 140.22744777687012 373.87444246094014 L 140.68082623409987 367.4485957989722 L 140.83195238650956 368.7264213066092 L 140.98307853891947 362.462138789285 L 141.1342046913294 364.20996908134026 L 141.28533084373908 360.457274630751 L 141.7387093009686 350.1979514458718 L 141.8898354533785 344.88102232214055 L 142.04096160578843 344.66070757944453 L 142.19208775819834 340.0561294570972 L 142.34321391060803 336.7660959661696 L 142.79659236783755 333.3879365781636 L 142.94771852024746 337.1553186782659 L 143.09884467265738 345.0499302915409 L 143.2499708250673 336.27405970748174 L 143.40109697747698 336.7881274404392 L 143.8544754347065 331.96323457539575 L 144.00560158711642 335.0256094988708 L 144.15672773952633 331.0966632541247 L 144.30785389193625 327.2044361331612 L 144.45898004434594 329.5838353542785 L 144.91235850157545 322.8642357020491 L 145.06348465398537 317.64277630015283 L 145.21461080639529 312.95007228072706 L 145.5168631112149 308.720029220963 L 145.9702415684444 312.4947551458219 L 146.12136772085432 327.1383417103524 L 146.27249387326424 326.1322377187071 L 146.42362002567393 319.39060659220814 L 146.57474617808384 316.7394858550991 L 147.02812463531336 325.44191819159283 L 147.17925078772328 326.4039592346989 L 147.3303769401332 326.638961626908 L 147.48150309254288 321.91688230845614 L 147.6326292449528 322.98173689815366 L 148.08600770218231 320.4774926561753 L 148.23713385459223 316.8937061749863 L 148.38826000700215 315.8141639357757 L 148.53938615941183 313.17773084817964 L 148.69051231182175 307.59642403321317 L 149.14389076905127 311.67224677308997 L 149.29501692146118 307.89752084823107 L 149.4461430738711 310.4017650902095 L 149.5972692262808 306.20844115422807 L 149.7483953786907 307.02360570220344 L 150.35289998833014 311.6428714740639 L 150.50402614074005 310.1373873989742 L 150.65515229314974 314.940248789748 L 150.80627844555966 318.8251320859549 L 151.4107830551991 303.86576105689346 L 151.561909207609 296.51459247560206 L 151.7130353600187 292.1082976216812 L 151.8641615124286 281.5185023227579 L 152.31753996965813 280.6078680529476 L 152.46866612206804 278.50753417257863 L 152.61979227447796 277.13423894310665 L 152.77091842688765 283.0092987483345 L 152.92204457929756 281.0852166621224 L 153.526549188937 280.45364773306034 L 153.6776753413469 296.7569386925677 L 153.8288014937566 302.9698144365962 L 153.97992764616652 330.1346222110186 L 154.43330610339603 309.5425375936949 L 154.58443225580595 298.1375777467963 L 154.73555840821587 305.5034339776007 L 154.88668456062555 304.5707682335208 L 155.03781071303547 305.1435865645305 L 155.491189170265 310.0419176771393 L 155.6423153226749 305.7531240193229 L 155.7934414750846 328.43085486750255 L 155.9445676274945 332.6462102777535 L 156.09569377990442 343.2874123499725 L 156.54907223713394 340.6803545614026 L 156.70019838954386 353.2970454931295 L 156.85132454195355 352.44516182137147 L 157.00245069436346 360.0166451453589 L 157.15357684677338 357.1966164388495 L 157.6069553040029 369.61502410214996 L 157.7580814564128 371.3628543942052 L 157.9092076088225 372.0531739213195 L 158.0603337612324 354.3692439075836 L 158.21145991364233 352.6875080383371 L 158.81596452328176 354.27377418574866 L 158.96709067569145 355.0815949089675 L 159.11821682810137 345.8430633652466 L 159.26934298051128 346.33509962393447 L 159.7227214377408 336.8028150899523 L 159.87384759015072 357.189272614093 L 160.0249737425604 355.5883188171684 L 160.17609989497032 347.03276297580527 L 160.32722604738024 345.76228129292474 L 160.78060450460976 353.16485664751184 L 160.93173065701967 355.8453526836471 L 161.08285680942936 363.60777545130446 L 161.23398296183927 371.59785678641435 L 161.3851091142492 375.6369604025085 L 161.8384875714787 375.96008869179605 L 161.98961372388862 365.60529578508186 L 162.1407398762983 370.49628307293415 L 162.29186602870823 374.7042946584286 L 162.44299218111814 373.955224533262 L 162.89637063834766 367.78641173777277 L 163.04749679075758 373.859754811427 L 163.19862294316727 373.639440068731 L 163.34974909557718 372.4130213343897 L 163.5008752479871 354.8539363415149 L 163.95425370521662 351.9971885112228 L 164.10537985762653 346.48197611906517 L 164.25650601003622 333.4246557019462 L 164.40763216244613 338.22751709272 L 164.55875831485605 337.08188043070055 L 165.01213677208557 337.3021951733966 L 165.16326292449526 326.5508357298296 L 165.31438907690517 323.87033969369435 L 165.4655152293151 321.52765959635974 L 165.616641381725 325.21425962414025 L 166.07001983895452 317.70887072296165 L 166.2211459913642 322.64392095935307 L 166.37227214377413 323.16533251706704 L 166.52339829618404 328.15178952675416 L 167.12790290582348 324.72956719020897 L 167.27902905823316 326.6242739773949 L 167.43015521064308 322.02703967980415 L 167.581281363053 318.72231853936347 L 167.7324075154629 302.4924658274214 L 168.18578597269243 299.9955654101996 L 168.33691212510212 309.7922276354171 L 168.48803827751203 310.6661427814447 L 168.63916442992195 315.02837468682645 L 168.79029058233186 316.5632340609422 L 169.24366903956138 330.5458763973846 L 169.39479519197107 333.55684454756386 L 169.545921344381 334.0195055072255 L 169.6970474967909 333.59356367134654 L 169.8481736492006 333.9240357853906 L 170.30155210643034 333.5715321970769 L 170.45267825884002 323.27548988841505 L 170.60380441124994 327.5495958967183 L 170.75493056365985 339.285027857661 L 170.90605671606954 348.7365303193214 L 171.3594351732993 347.21635859471866 L 171.51056132570898 350.81483272542073 L 171.6616874781189 348.46480880332956 L 171.8128136305288 351.0424912928733 L 171.9639397829385 351.75484229425723 L 172.41731824016824 351.07186659189944 L 172.56844439257793 347.6716757296238 L 172.71957054498785 343.5077270926686 L 172.87069669739776 342.2299015850315 L 173.02182284980745 343.4342888451032 L 173.62632745944688 350.3448279410025 L 173.7774536118568 350.43295383808095 L 173.92857976426671 342.50162310102326 L 174.0797059166764 344.83695937360136 L 174.53308437390592 348.5088717518688 L 174.68421052631584 337.0892242554571 L 174.83533667872575 339.64487527073123 L 174.98646283113567 334.65841826104406 L 175.13758898354536 339.60081232219204 L 175.59096744077488 343.29475617472906 L 175.7420935931848 339.63753144597473 L 175.8932197455947 341.20176611911666 L 176.04434589800462 336.34749795504706 L 176.1954720504143 336.56781269774314 L 176.64885050764383 338.4478318354161 L 176.79997666005374 339.1601828367999 L 176.95110281246366 328.1738210010238 L 177.10222896487358 329.7747747979484 L 177.25335511728326 326.16895684248976 L 177.70673357451278 326.638961626908 L 177.8578597269227 328.03428833064964 L 178.0089858793326 325.25097874792294 L 178.16011203174253 316.65870378277714 L 178.31123818415222 315.54244241978387 L 178.76461664138174 312.7003822390049 L 179.06686894620157 313.97820774664194 L 179.21799509861125 312.7077260637614 L 179.36912125102117 314.719934047052 L 179.8224997082507 316.3722946172723 L 179.9736258606606 311.70162207211615 L 180.12475201307052 317.0699579691431 L 180.2758781654802 323.2534584141455 L 180.42700431789012 327.1677170093785 L 180.88038277511964 323.9437779412597 L 181.03150892752956 327.4981891234226 L 181.18263507993947 330.4724381498192 L 181.33376123234916 339.1969019605826 L 181.48488738475908 337.00109835837867 L 181.9382658419886 336.42093620261244 L 182.0893919943985 337.5518852151188 L 182.24051814680843 340.3866015711412 L 182.39164429921811 342.6631872456671 L 182.54277045162803 338.4625194849291 L 182.99614890885755 339.5787808479224 L 183.14727506126746 347.72308250291957 L 183.29840121367738 353.8037694013304 L 183.44952736608707 347.811208399998 L 183.60065351849698 348.94215741250434 L 184.0540319757265 345.93118926232506 L 184.20515812813642 343.6913227115819 L 184.35628428054633 346.67291556273506 L 184.50741043295602 348.68512354602564 L 184.65853658536594 352.8711036572505 L 185.11191504259546 352.18812795489276 L 185.26304119500537 343.71335418585153 L 185.4141673474153 338.7562724751905 L 185.56529349982497 340.1662868284452 L 185.7164196522349 341.9581800690397 L 186.1697981094644 346.4085378714998 L 186.32092426187432 345.68149922060286 L 186.47205041428424 349.2505980522788 L 186.62317656669393 349.0302833095827 L 186.77430271910384 349.37544307313993 L 187.22768117633336 343.7280418353646 L 187.37880732874328 345.1968067866716 L 187.5299334811532 343.8749183304953 L 187.68105963356288 345.50524742644603 L 187.8321857859728 345.4538406531503 L 188.43669039561223 341.2237975933862 L 188.58781654802215 344.32289164064395 L 188.73894270043183 345.53462272547216 L 188.89006885284175 346.0046275098904 L 189.34344731007127 341.4220808618127 L 189.49457346248118 335.68655372695895 L 189.64569961489087 324.91316280912235 L 189.7968257673008 326.81521342106487 L 189.9479519197107 322.4823568147093 L 190.40133037694022 318.94997710681605 L 190.55245652935014 326.94005844192594 L 190.70358268175983 331.9412031011262 L 190.85470883416974 324.70753571593934 L 191.00583498657966 326.96208991619557 L 191.45921344380918 326.81521342106487 L 191.6103395962191 324.6928480664263 L 191.76146574862878 327.59365884525755 L 191.9125919010387 327.10896641132626 L 192.0637180534486 328.3427289704241 L 192.51709651067813 328.6805449092247 L 192.66822266308805 326.7711504725256 L 192.81934881549773 318.208250806406 L 192.97047496790765 321.0649986366981 L 193.12160112031756 314.6832149232693 L 193.57497957754708 308.44096388021467 L 193.726105729957 310.16676269800035 L 193.8772318823667 310.27692006934836 L 194.0283580347766 309.5866005422341 L 194.17948418718652 309.6894140888256 L 194.63286264441604 313.7652368287024 L 194.78398879682595 314.5804013766778 L 194.93511494923564 315.55713006929693 L 195.08624110164556 310.6000483586359 L 195.23736725405547 285.9174533519223 L 195.690745711285 270.41463929087723 L 195.8418718636949 275.90047638400875 L 195.9929980161046 266.1405332825739 L 196.1441241685145 267.2421069960542 L 196.29525032092442 274.5124935050237 L 196.74862877815394 273.5063895133784 L 196.89975493056386 273.638578358996 L 197.05088108297355 280.1672385675555 L 197.20200723538346 278.3973768012306 L 197.35313338779338 277.0093939222455 L 197.8065118450229 273.2273241726301 L 197.9576379974328 276.44391941599235 L 198.1087641498425 274.65937000015435 L 198.25989030225242 276.39985646745316 L 198.41101645466233 275.72422458985193 L 198.86439491189185 270.2310436719639 L 199.01552106430154 264.15770059830953 L 199.16664721671145 262.2262746873409 L 199.31777336912137 259.31077625899655 L 199.46889952153128 257.18841090435797 L 199.9222779787608 259.935001363302 L 200.0734041311705 249.21301721876114 L 200.2245302835804 250.41740447883285 L 200.52678258840024 252.62789573054982 L 200.98016104562976 267.4991408625329 L 201.13128719803944 264.01082410317883 L 201.28241335044936 267.5725791100983 L 201.43353950285928 267.4550779139937 L 201.5846656552692 270.39995164136417 L 202.0380441124987 267.4257026149675 L 202.1891702649084 265.8467802923126 L 202.3402964173183 264.5909862589451 L 202.49142256972823 269.04868788616176 L 202.64254872213814 267.9691456469511 L 203.09592717936766 268.10133449256875 L 203.24705333177735 269.6802568152238 L 203.39817948418727 271.72918392229695 L 203.54930563659718 269.43056677350154 L 203.70043178900687 270.7671428791909 L 204.15381024623662 283.6188362031269 L 204.3049363986463 279.33738637006707 L 204.45606255105622 283.54539795556155 L 204.60718870346614 288.4657605424399 L 204.75831485587582 288.92107767734507 L 205.36281946551526 287.4890318498208 L 205.51394561792517 279.77801585545916 L 205.6650717703351 283.7950879972837 L 205.81619792274478 285.32260354664294 L 206.57182868479413 280.10114414474674 L 206.72295483720404 268.5933707512566 L 206.87408098961373 265.7072476219384 L 207.32745944684348 268.3583683590475 L 207.47858559925317 266.9483540057928 L 207.62971175166308 264.040199402205 L 207.780837904073 256.5054352020002 L 207.93196405648268 252.62789573054982 L 208.53646866612212 253.15665111302036 L 208.68759481853203 258.2973284425948 L 208.83872097094195 265.23724283752017 L 208.98984712335164 263.8272284842655 L 209.44322558058116 270.37057634233804 L 209.59435173299107 271.68512097375776 L 209.745477885401 256.982783811175 L 209.8966040378109 265.0463033938503 L 210.0477301902206 259.3548392075358 L 210.5011086474501 261.829708150488 L 210.65223479986003 260.4711005705291 L 210.80336095226994 255.198234395337 L 210.95448710467986 269.70228828949337 L 211.10561325708954 269.88588390840675 L 211.55899171431906 280.4169286092777 L 211.71011786672898 277.2443963144546 L 211.8612440191389 278.3239385536653 L 212.01237017154858 277.57486842849875 L 212.16349632395873 284.28712425597155 L 212.61687478118824 286.9309011683241 L 212.76800093359793 286.33605136304476 L 212.91912708600762 281.32021905433146 L 213.07025323841776 284.595564895746 L 213.22137939082745 278.375345326961 L 213.8258840004671 276.78907917954945 L 213.9770101528768 274.02780107109237 L 214.1281363052865 274.0351448958489 L 214.27926245769663 277.87596524351665 L 214.73264091492615 282.05460152998495 L 214.88376706733584 293.9222223365453 L 215.03489321974553 293.4228422531009 L 215.18601937215567 294.31878887339815 L 215.33714552456536 301.3321415158889 L 215.79052398179488 299.66509329615553 L 215.94165013420456 287.47434420030766 L 216.0927762866147 288.8770147288059 L 216.2439024390244 289.55264660640705 L 216.39502859143454 290.8451597635572 L 216.84840704866406 289.5306151321374 L 216.99953320107375 298.1375777467963 L 217.15065935348343 294.48769684279847 L 217.30178550589358 295.81692912373126 L 217.45291165830326 299.73853154372085 L 217.90629011553278 295.05317134905164 L 218.05741626794247 296.485217176576 L 218.20854242035261 288.20872667596115 L 218.3596685727623 284.17696688462354 L 218.51079472517245 284.3311872045108 L 218.96417318240196 282.00319475668925 L 219.11529933481165 283.016642573091 L 219.26642548722134 284.2944680807281 L 219.41755163963148 284.9994752573554 L 219.56867779204117 287.02637089015906 L 220.0220562492707 286.7546493741673 L 220.17318240168038 276.42188794172273 L 220.32430855409052 277.58221225325525 L 220.4754347065002 277.22236484018504 L 221.07993931613987 279.6458270098416 L 221.23106546854956 280.901621043209 L 221.38219162095925 282.3483545202464 L 221.5333177733694 280.2480206398774 L 221.68444392577908 281.0558413630962 L 222.1378223830086 275.19546920738145 L 222.28894853541829 276.27501144659203 L 222.44007468782843 273.91764369974436 L 222.59120084023812 277.1195512935936 L 222.7423269926478 269.1661890822663 L 223.19570544987778 271.6630894994882 L 223.34683160228747 272.8013823367511 L 223.49795775469715 272.46356639795044 L 223.6490839071073 270.12088630061584 L 223.80021005951698 271.7144962727839 L 224.2535885167465 277.31783456202 L 224.4047146691562 279.0656648540753 L 224.55584082156633 281.4303764256795 L 224.70696697397602 275.959226982061 L 224.8580931263857 277.5087740056899 L 225.31147158361523 280.3361465369558 L 225.46259773602537 280.6739624757564 L 225.61372388843506 278.8820692351619 L 225.7648500408452 284.595564895746 L 225.9159761932549 280.72536924905216 L 226.3693546504844 284.3679063282935 L 226.5204808028941 287.1438720862636 L 226.67160695530424 276.4145441169662 L 226.82273310771393 277.6262752017945 L 226.97385926012362 278.09627998621266 L 227.42723771735314 277.8906528930297 L 227.57836386976328 274.02780107109237 L 227.72949002217297 275.41578395007747 L 227.8806161745831 275.1514062588422 L 228.0317423269928 268.4024313075867 L 228.636246936632 265.76599821999065 L 228.78737308904215 257.3279435747321 L 228.93849924145184 257.834667482933 L 229.08962539386152 256.0060551185559 L 229.54300385109104 251.10772400594715 L 229.6941300035012 242.4640422675056 L 229.84525615591087 242.89732792814118 L 229.99638230832056 245.24000802547584 L 230.1475084607307 244.92422356094477 L 230.60088691796022 247.9719108349068 L 230.7520130703699 252.79680369995015 L 230.90313922278006 252.451643936393 L 231.05426537518974 254.21416187796137 L 231.20539152759943 251.97429532721827 L 231.65876998482895 245.13719447888428 L 231.8098961372391 245.79079488221595 L 231.96102228964878 248.978014826552 L 232.11214844205847 245.9376713773466 L 232.2632745944686 237.9549338669932 L 232.71665305169813 236.16304062639875 L 232.86777920410782 234.07739439554285 L 233.01890535651796 236.9928928238872 L 233.17003150892765 237.93290239272363 L 233.32115766133734 239.62932591148314 L 233.77453611856686 233.9892684984644 L 233.925662270977 231.08111389487658 L 234.22791457579638 225.7274656473627 L 234.37904072820652 227.36513856807 L 234.83241918543604 225.044489945005 L 234.98354533784573 224.47167161399523 L 235.13467149025587 223.6418194165068 L 235.28579764266556 223.0102504874448 L 235.43692379507524 217.9944181787315 L 235.89030225230476 217.3848807239391 L 236.0414284047149 215.9087719478756 L 236.1925545571246 219.94787556396977 L 236.34368070953428 220.61616361681445 L 236.49480686194443 241.52403269866915 L 236.94818531917394 247.11268333839217 L 237.09931147158363 246.01845344966847 L 237.25043762399378 249.13223514643926 L 237.40156377640346 250.4247483035894 L 237.55268992881315 247.56800047329733 L 238.00606838604267 244.4689064260396 L 238.1571945384528 248.95598335228243 L 238.3083206908625 246.79689887386115 L 238.4594468432722 248.21425705187238 L 238.61057299568233 254.0966606818568 L 239.06395145291185 248.95598335228243 L 239.21507760532154 244.53500084884848 L 239.36620375773123 237.36742788647047 L 239.51732991014137 245.48235424244143 L 239.66845606255106 244.73328411727488 L 240.12183451978058 244.91687973618826 L 240.27296067219072 249.98411881819726 L 240.4240868246004 258.0990451741683 L 240.5752129770101 262.52737150235885 L 240.72633912942024 256.2704328097911 L 241.17971758664976 257.8273236581765 L 241.33084373905945 251.44553994474774 L 241.48196989146913 246.93643154423535 L 241.63309604387928 247.34768573060126 L 241.78422219628897 245.28407097401498 L 242.23760065351848 246.56189648165207 L 242.38872680592863 251.599760264635 L 242.53985295833832 246.8409618224004 L 242.690979110748 247.92784788636754 L 242.84210526315815 245.10047535510165 L 243.44660987279735 237.83008884613213 L 243.59773602520704 235.88397528565042 L 243.74886217761718 239.02713228144734 L 243.89998833002687 242.0895072049223 L 244.3533667872564 245.66594986135482 L 244.50449293966653 240.6354299031284 L 244.65561909207622 239.66604503526588 L 244.8067452444859 238.10181036212396 L 244.95787139689605 235.18631193377956 L 245.41124985412557 237.71993147478412 L 245.56237600653526 230.3981381925189 L 245.71350215894495 221.89398912445148 L 245.8646283113551 217.50238192004366 L 246.01575446376478 212.16342132204284 L 246.4691329209943 206.34711211486723 L 246.62025907340444 205.6274172887268 L 246.77138522581413 206.24429856827578 L 246.92251137822382 206.72899100220707 L 247.07363753063396 206.8978989716074 L 247.52701598786348 195.67653474362214 L 247.67814214027317 194.32527098841973 L 247.82926829268285 194.5969925044115 L 247.980394445093 198.2615610579224 L 248.13152059750269 187.2311362736071 L 248.5848990547322 175.79680112768227 L 248.7360252071419 171.71363456304897 L 248.88715135955204 164.21558948662687 L 249.03827751196172 166.70514607909217 L 249.18940366437187 155.40299977878504 L 249.64278212160139 168.09312895807722 L 249.79390827401107 171.11144093301306 L 249.94503442642076 158.27443525859013 L 250.0961605788309 153.76532685807774 L 250.2472867312406 150.02732005700148 L 250.7006651884701 145.59164990405446 L 250.8517913408798 127.21740036320432 L 251.00291749328994 127.18068123942157 L 251.15404364569963 132.54901713644858 L 251.30516979810977 128.07662785971883 L 251.7585482553393 124.6764369974432 L 251.90967440774898 113.26413332578807 L 252.06080056015867 104.28263564854592 L 252.2119267125688 107.06594523127262 L 252.3630528649785 101.16151012701869 L 252.81643132220802 90.58640247760843 L 252.9675574746177 78.73346932056131 L 253.11868362702785 85.23275423009454 L 253.26980977943754 113.9471090281458 L 253.42093593184723 135.8831135759154 L 253.8743143890772 159.30991454926152 L 254.0254405414869 138.39470164265038 L 254.17656669389658 152.25249895823163 L 254.32769284630672 161.08712014034302 L 254.4788189987164 158.16427788724212 L 254.93219745594592 163.87777354782622 L 255.0833236083556 147.2146351752487 L 255.23444976076576 138.41673311691994 L 255.53670206558513 126.53442466084653 L 255.9900805228151 134.39231715033884 L 256.1412066752248 128.83304180964188 L 256.2923328276345 115.10743333967832 L 256.4434589800446 111.62646040508082 L 256.5945851324543 114.56399030769472 L 257.04796358968383 122.9873573034402 L 257.1990897420935 121.05593139247156 L 257.35021589450366 110.517542866844 L 257.50134204691335 98.21663639964822 L 257.65246819932304 98.503045565153 L 258.10584665655256 95.89598777658318 L 258.2569728089627 110.01081895864309 L 258.4080989613724 109.90066158729508 L 258.55922511378253 113.7928887082586 L 258.7103512661922 116.79651303368132 L 259.16372972342174 132.02026175397805 L 259.3148558758314 128.9946059542857 L 259.46598202824157 126.04238840215868 L 259.61710818065126 116.99479630210772 L 259.76823433306095 111.85411897253334 L 260.22161279029046 108.88721377089325 L 260.5238650951103 101.46260694203659 L 260.67499124752044 108.87986994613675 L 260.8261173999301 107.56532531471703 L 261.27949585715965 115.68025167068805 L 261.5817481619795 120.29951744254839 L 261.73287431438916 120.19670389595694 L 261.88400046679885 141.0017594312202 L 262.33737892402837 146.69322361753467 L 262.4885050764385 159.59632371476647 L 262.6396312288482 143.7924128387034 L 262.7907573812579 148.5438674561815 L 262.94188353366803 154.771430849723 L 263.39526199089755 143.33709570379824 L 263.54638814330724 155.21206033511515 L 263.6975142957174 171.1481600567957 L 263.84864044812707 182.2813983877026 L 263.99976660053676 182.67796492455545 L 264.6042712101764 194.3546462874458 L 264.7553973625861 220.59413214254482 L 264.9065235149958 201.5956574973892 L 265.05764966740594 207.53681172542593 L 265.51102812463546 215.18907712173518 L 265.66215427704515 219.19880543880322 L 265.8132804294553 220.8511660090236 L 265.964406581865 209.07901492429824 L 266.11553273427467 244.62312674592687 L 266.5689111915042 259.6559360225537 L 266.7200373439143 251.30600727437354 L 266.871163496324 255.0440140754498 L 267.0222896487337 252.6646148543325 L 267.17341580114385 244.04296459016058 L 267.62679425837337 240.76027492398953 L 267.77792041078305 243.0148291242457 L 267.9290465631932 230.87548680169363 L 268.0801727156029 232.61597326899238 L 268.2312988680126 234.532711530448 L 268.83580347765223 249.7270849517186 L 268.9869296300619 249.69036582793592 L 269.1380557824716 254.1994742284483 L 269.28918193488175 250.57162479872005 L 269.7425603921113 266.2580344786785 L 269.89368654452096 282.59804456196855 L 270.0448126969311 276.23094849805284 L 270.1959388493408 274.3729608346495 L 270.3470650017505 277.4647110571507 L 270.80044345898 287.86356691240405 L 270.95156961139014 296.9845972600203 L 271.10269576379983 294.7080115854945 L 271.2538219162095 305.7237487202968 L 271.40494806861966 305.246400111122 L 271.8583265258492 319.73576635576524 L 272.00945267825887 300.4802578441309 L 272.16057883066856 300.2305678024087 L 272.3117049830787 298.15226539630936 L 272.4628311354884 301.89027219738557 L 272.9162095927179 315.14587588293097 L 273.06733574512805 300.97963792757525 L 273.21846189753774 306.2378164532542 L 273.3695880499474 305.0995236159913 L 273.9740926595871 285.2638529485907 L 274.1252188119968 292.4461135604818 L 274.27634496440646 287.00433941588943 L 274.4274711168166 297.3664761473601 L 274.5785972692263 301.77277100128106 L 275.0319757264558 300.0175968844692 L 275.18310187886595 281.4817831989753 L 275.33422803127564 281.4891270237318 L 275.48535418368533 289.25889361614566 L 275.6364803360955 277.5308054799595 L 276.089858793325 273.32279389446506 L 276.2409849457347 279.9395800001029 L 276.39211109814437 282.59804456196855 L 276.5432372505545 279.00691425602304 L 276.6943634029642 287.54778244787303 L 277.1477418601937 291.7998569819067 L 277.29886801260386 295.33958051455653 L 277.44999416501355 289.3249880389545 L 277.60112031742324 293.3567478302921 L 277.7522464698334 227.35779474331343 L 278.2056249270629 228.54749435387208 L 278.3567510794726 215.9087719478756 L 278.5078772318823 222.15836681568675 L 278.6590033842924 224.6919863566913 L 278.8101295367021 223.94291623152475 L 279.2635079939316 218.02379347775764 L 279.41463414634177 213.360464757358 L 279.56576029875146 201.7425339925199 L 279.71688645116114 187.9434872749909 L 279.8680126035713 196.60185666294552 L 280.3213910608008 186.6069111693016 L 280.4725172132105 192.87853751138232 L 280.6236433656202 198.28359253219196 L 280.7747695180303 195.3387188048215 L 280.92589567044 202.54301089098215 L 281.37927412766953 193.92136062681027 L 281.5304002800792 195.34606262957806 L 281.68152643248936 200.2664252164564 L 281.83265258489905 196.81482758088504 L 281.9837787373092 197.49780328324272 L 282.4371571945387 199.37047859615916 L 282.5882833469484 198.57734552245336 L 282.7394094993581 219.58802815089956 L 282.89053565176823 219.9772508629959 L 283.0416618041779 223.53166204515878 L 283.6461664138171 211.57591534152004 L 283.79729256622727 206.18554797022347 L 283.94841871863696 195.34606262957806 L 284.0995448710471 193.28979169774834 L 284.5529233282766 201.22112243480592 L 284.7040494806863 206.87586749733777 L 284.855175633096 203.26270571712257 L 285.00630178550614 192.92260045992157 L 285.1574279379158 207.09618224003378 L 285.61080639514535 213.80109424275008 L 285.76193254755503 216.51830940266802 L 285.9130586999652 223.10572020927975 L 286.06418485237486 217.41425602296522 L 286.215311004785 203.7841172748366 L 286.6686894620145 202.8294200564871 L 286.8198156144242 205.28960134992622 L 286.9709417668339 210.4890292775529 L 287.12206791924405 212.08998307447746 L 287.27319407165373 222.202429764226 L 287.72657252888325 223.0983763845232 L 287.87769868129294 225.2354293886749 L 288.0288248337031 218.84630185048957 L 288.1799509861128 235.1349051604838 L 288.33107713852246 235.68569201722391 L 288.78445559575243 236.89742310205224 L 288.9355817481621 230.79470472937174 L 289.0867079005718 236.44210596714709 L 289.23783405298195 229.1276565096383 L 289.84233866262116 224.05307360287276 L 289.99346481503085 216.25393171143276 L 290.144590967441 225.786216245415 L 290.2957171198507 226.50591107155537 L 290.44684327226037 231.47768043172954 L 290.90022172949034 240.42245898518894 L 291.0513478819 244.48359407555267 L 291.2024740343097 230.1557919755532 L 291.35360018671986 231.7420581229647 L 291.50472633912955 270.0180727540244 L 291.95810479635907 279.212541349206 L 292.10923094876875 273.1098229765255 L 292.2603571011789 264.2164511963618 L 292.4114832535886 274.2040528652492 L 292.5626094059983 262.1895555635582 L 293.0159878632278 273.102479151769 L 293.16711401563794 268.7035281226046 L 293.3182401680476 269.00462493762257 L 293.46936632045777 275.57734809472123 L 293.62049247286745 279.90286087632023 L 294.073870930097 283.4719597079962 L 294.22499708250666 271.09761499323497 L 294.3761232349168 266.3314727262439 L 294.5272493873265 271.633714200462 L 294.6783755397362 259.96437666232816 L 295.1317539969657 255.68292682926835 L 295.28288014937584 254.38306984736164 L 295.43400630178553 256.2777766345477 L 295.5851324541957 252.2680483174796 L 295.73625860660536 248.84582598093442 L 296.1896370638349 257.5482583174282 L 296.34076321624457 263.27644162752534 L 296.4918893686547 267.3155452436195 L 296.6430155210644 266.19194005586974 L 296.7941416734741 263.2103472047166 L 297.2475201307036 268.77696637017 L 297.39864628311375 275.2762512797033 L 297.54977243552344 279.37410549384975 L 297.7008985879331 275.55531662045166 L 297.85202474034327 283.25898879005666 L 298.4565293499825 281.81959913777587 L 298.6076555023926 282.4364804173248 L 298.7587816548023 292.8279924478216 L 298.909907807212 297.24163112649904 L 299.3632862644415 315.0871252848787 L 299.51441241685166 316.03447867847166 L 299.66553856926134 319.3391998189124 L 299.81666472167103 304.9526471208606 L 299.9677908740812 302.08121164105546 L 300.4211693313107 304.8718650485387 L 300.5722954837204 298.2110159943616 L 300.7234216361305 319.09685360194675 L 300.8745477885402 301.03838852562757 L 301.0256739409499 293.64315699579697 L 301.4790523981794 307.60376785796973 L 301.63017855058956 308.2426806117882 L 301.78130470299925 303.95388695397185 L 301.93243085540894 300.65650963828773 L 302.0835570078191 306.94282362988156 L 302.5369354650486 343.6913227115819 L 302.6880616174583 329.3561767868259 L 302.83918776986843 321.13109305950684 L 302.9903139222781 336.72203301763034 L 303.1414400746878 339.35112228046984 L 303.5948185319173 350.88092714822955 L 303.74594468432747 369.3873655346973 L 303.89707083673716 375.18898709235987 L 304.04819698914685 381.8938990950762 L 304.199323141557 379.6760640186027 L 304.6527015987865 343.6766350620689 L 304.8038277511962 357.1231781912842 L 304.95495390360634 374.4105416681672 L 305.106080056016 364.23934438036645 L 305.2572062084257 349.9041984556104 L 305.71058466565523 344.9250852706798 L 305.8617108180654 357.093802892258 L 306.01283697047506 362.2932308198847 L 306.16396312288475 364.75341211332386 L 306.3150892752949 374.3224157710888 L 306.7684677325244 381.51936403249294 L 306.9195938849341 352.6875080383371 L 307.0707200373438 360.58211965161206 L 307.22184618975393 359.3410132677577 L 307.3729723421636 359.5833594847233 L 307.82635079939314 369.03486194638367 L 307.9774769518033 354.0167403192699 L 308.12860310421297 372.155987467911 L 308.27972925662266 380.24888234961236 L 308.4308554090328 380.3076329476647 L 308.8842338662623 389.38460034674176 L 309.035360018672 394.7602800685253 L 309.1864861710817 409.78574552039555 L 309.33761232349184 394.3049629336201 L 309.4887384759015 395.8177908334663 L 309.94211693313105 403.08817734243576 L 310.0932430855412 405.07101002670015 L 310.2443692379509 417.73176390696625 L 310.39549539036057 432.8747305549411 L 310.5466215427707 430.7670528498156 L 311.0000000000002 434.4316214033265 L 311.1511261524099 416.3584686774942 L 311.3022523048196 408.9852686219333 L 311.60450460963943 408.34635586811476 L 312.05788306686895 428.1526512364892 L 312.2090092192791 421.4550830585294 L 312.3601353716888 418.28255076370635 L 312.5112615240985 422.0205575647826 L 312.6623876765086 414.9337666747265 L 313.11576613373813 401.6267562158853 L 313.2668922861478 398.7920398598628 L 313.4180184385575 396.6990498042504 L 313.56914459096765 403.0147390948704 L 313.72027074337734 391.6024354232153 L 314.17364920060686 395.34044222429145 L 314.324775353017 384.6111142549941 L 314.4759015054267 391.9843143105551 L 314.6270276578364 395.62685138979634 L 314.7781538102465 395.7076334621182 L 315.23153226747604 405.29866859415273 L 315.38265841988573 404.6303805413081 L 315.5337845722954 401.0098749363364 L 315.83603687711525 402.91192554827893 L 316.28941533434477 405.07101002670015 L 316.44054148675446 400.89237374023185 L 316.5916676391646 397.55827730076504 L 316.89391994398443 387.5192688585819 L 317.34729840121395 382.5768747974339 L 317.49842455362364 378.16323611875646 L 317.6495507060333 387.01254495038097 L 317.80067685844347 384.6772086778029 L 317.95180301085315 392.1091593314162 L 318.4051814680827 393.85698962347146 L 318.55630762049236 392.65994618815625 L 318.7074337729025 402.4639522381303 L 318.8585599253122 403.9180295399242 L 319.00968607772234 403.4186494564798 L 319.61419068736154 415.8444009445368 L 319.76531683977123 400.91440521450147 L 319.9164429921814 398.40281714776654 L 320.06756914459106 385.0370560908731 L 320.5209476018206 385.6465935456655 L 320.67207375423027 380.05794290594247 L 320.8231999066404 367.43390814945906 L 320.9743260590501 371.3628543942052 L 321.1254522114598 374.88054645258546 L 321.57883066868976 373.38240620225235 L 321.72995682109945 373.47053209933074 L 321.88108297350914 371.59785678641435 L 322.0322091259193 363.725276647409 L 322.18333527832897 350.8295203749338 L 322.6367137355585 345.3289956322892 L 322.7878398879682 360.2075845890288 L 322.9389660403783 360.55274435258593 L 323.090092192788 356.873488149562 L 323.2412183451977 360.8171220438212 L 323.84572295483736 371.8475468281365 L 323.99684910724704 364.17324995755763 L 324.1479752596572 371.8622344776496 L 324.2991014120669 369.0642372454098 L 324.7524798692964 381.1007660213704 L 324.9036060217061 369.79861972106335 L 325.0547321741162 372.59661695330306 L 325.2058583265259 375.87196279471766 L 325.3569844789356 375.2771129894383 L 325.8103629361651 383.2304752007655 L 325.96148908857526 384.4642377598634 L 326.11261524098495 389.28178680015026 L 326.2637413933951 399.0343860768285 L 326.4148675458048 396.8826454231638 L 326.8682460030343 409.86652759271743 L 327.019372155444 397.1763984134252 L 327.17049830785413 390.02351310056025 L 327.3216244602638 385.8962835873877 L 327.4727506126735 385.2426831840561 L 327.926129069903 388.7163122938971 L 328.07725522231317 377.22322654992 L 328.22838137472286 378.8682432953838 L 328.379507527133 381.18889191844886 L 328.5306336795427 381.02732777380504 L 328.9840121367722 367.4853149227548 L 329.1351382891819 368.53548186293926 L 329.28626444159204 370.8120675374651 L 329.4373905940017 364.04106111194 L 329.5885167464114 368.146259150843 L 330.04189520364093 371.82551535386693 L 330.1930213560511 367.8818814596077 L 330.34414750846076 363.4535551314172 L 330.49527366087045 357.2773985111714 L 330.6463998132806 351.93109408841406 L 331.0997782705101 353.0620431009204 L 331.2509044229198 360.10477104243733 L 331.40203057532995 357.64458974899816 L 331.55315672773963 349.93357375463654 L 332.15766133737884 345.8136880662205 L 332.308787489789 352.57000684223254 L 332.45991364219867 344.79289642506217 L 332.61103979460836 338.00720235002393 L 332.7621659470185 335.43686368523674 L 333.215544404248 344.93977292019287 L 333.3666705566577 343.34616294802476 L 333.51779670906785 341.59098883121294 L 333.66892286147754 340.9814513764206 L 333.8200490138872 337.4564154932838 L 334.27342747111675 340.0561294570972 L 334.4245536235269 341.701146202561 L 334.5756797759366 336.0023381914899 L 334.72680592834627 332.69761705104924 L 334.8779320807564 334.3720090955392 L 335.3313105379859 328.2839783723718 L 335.4824366903956 327.5422520719618 L 335.63356284280576 327.1897484836481 L 335.78468899521545 332.227612266631 L 335.93581514762514 324.3550321276257 L 336.38919360485465 323.8776835184509 L 336.5403197572648 330.4650943250627 L 336.6914459096745 337.41969636950114 L 336.8425720620842 338.9178366198343 L 336.9936982144943 337.08188043070055 L 337.44707667172383 332.05870429723075 L 337.5982028241335 330.56056404689764 L 337.74932897654367 331.80901425550854 L 337.90045512895335 332.3083943389529 L 338.05158128136304 334.51154176591336 L 338.6560858910027 326.53614808031654 L 338.8072120434124 325.65488910953235 L 338.9583381958221 322.1004779273695 L 339.1094643482322 317.08464561865617 L 339.56284280546174 310.2328571208092 L 339.71396895787143 308.88159336560676 L 339.8650951102811 306.49485031973296 L 340.01622126269126 300.1571295548434 L 340.16734741510095 297.1902243532033 L 340.62072587233047 301.26604709308015 L 340.7718520247406 303.5793518913886 L 340.9229781771503 305.7971869678621 L 341.07410432956 308.44096388021467 L 341.22523048197013 311.4959949789332 L 341.67860893919965 317.4224615574568 L 341.82973509160934 317.98793606371 L 341.980861244019 318.6048173432589 L 342.13198739642917 319.4126380664777 L 342.28311354883886 314.98431173828726 L 342.7364920060684 324.34034447811257 L 342.8876181584785 325.5667632124539 L 343.0387443108882 322.91564247534484 L 343.1898704632979 318.1568440331103 L 343.34099661570804 311.1434913906195 L 343.79437507293756 312.0100627118906 L 343.94550122534724 313.882738024807 L 344.09662737775693 315.79213246150607 L 344.2477535301671 323.50314845586763 L 344.8522581398063 322.6806400831357 L 345.0033842922164 332.21292461711795 L 345.1545104446261 327.9094433097885 L 345.3056365970358 322.10782175212603 L 345.45676274944594 319.16294802475556 L 345.91014120667546 311.89256151578604 L 346.06126735908515 311.6061523502812 L 346.21239351149484 301.7066765784722 L 346.363519663905 298.45336221132726 L 346.51464581631467 307.5229857856478 L 346.9680242735442 307.5817363837001 L 347.11915042595433 309.24878460343353 L 347.270276578364 309.40300492332074 L 347.4214027307737 302.3162140332646 L 347.57252888318385 295.4277064116349 L 348.02590734041337 296.8377207648896 L 348.17703349282306 300.47291401937434 L 348.32815964523274 303.1240347564834 L 348.4792857976429 296.2208394853407 L 348.6304119500526 298.12289009728323 L 349.0837904072821 291.3959466202973 L 349.2349165596918 290.279685257304 L 349.3860427121019 292.18173586924655 L 349.5371688645116 292.7545542002562 L 349.68829501692176 287.80481631435174 L 350.1416734741513 288.16466372742195 L 350.29279962656096 290.1254649374168 L 350.44392577897065 286.7179302503846 L 350.5950519313808 284.0007150904667 L 350.7461780837905 285.67510713495665 L 351.19955654102 296.7716263420808 L 351.3506826934297 296.485217176576 L 351.50180884583983 297.447258219682 L 351.6529349982495 285.3740103199387 L 351.80406115065966 281.82694296253237 L 352.2574396078892 279.2639481225017 L 352.40856576029887 277.32517838677654 L 352.55969191270856 279.8000473297288 L 352.7108180651187 281.2247493324965 L 352.8619442175284 282.1867903756026 L 353.3153226747579 284.4486884006153 L 353.4664488271676 288.78888883172743 L 353.61757497957774 290.8084406397745 L 353.7687011319874 287.4963756745773 L 353.9198272843971 284.72040991660714 L 354.5243318940368 286.68855495135847 L 354.67545804644647 282.7596087066123 L 354.8265841988566 277.6409628513075 L 354.9777103512663 276.7597038805234 L 355.4310888084958 274.57124410307597 L 355.5822149609055 272.79403851199453 L 355.73334111331565 264.8994268987196 L 355.88446726572533 262.3804950072281 L 356.035593418135 262.57143445089804 L 356.488971875365 258.50295553577774 L 356.6400980277747 256.9901276359315 L 356.7912241801844 257.43075712132367 L 356.9423503325945 258.671863505178 L 357.0934764850042 261.8223643257314 L 357.5468549422337 257.3793503480279 L 357.6979810946434 257.3793503480279 L 357.84910724705355 259.3474953827792 L 358.00023339946324 265.6999037971819 L 358.15135955187293 267.623985883394 L 358.60473800910245 264.73051892931926 L 358.7558641615126 257.22513002814065 L 358.9069903139223 243.41873948585516 L 359.0581164663324 245.8862646040509 L 359.2092426187421 244.36609287944816 L 359.66262107597163 238.6452533941075 L 359.8137472283813 237.12508166950477 L 359.96487338079146 230.36141906873615 L 360.11599953320115 234.33442826202156 L 360.26712568561084 219.69084169749107 L 360.72050414284035 218.0458249520272 L 360.8716302952505 218.31754646801903 L 361.0227564476602 218.7728636029242 L 361.1738826000703 216.57706000072028 L 361.32500875248 216.87081299098162 L 361.77838720970954 216.48893410364184 L 361.9295133621192 220.83647835951052 L 362.08063951452937 226.70419433998188 L 362.23176566693905 218.80958272670694 L 362.38289181934874 229.77391308821342 L 362.83627027657826 231.33814776135534 L 362.9873964289884 228.91468559169886 L 363.1385225813981 226.6821628657122 L 363.2896487338078 220.57210066827525 L 363.4407748862179 218.7728636029242 L 363.89415334344744 210.39355955571796 L 364.04527949585713 207.27243403419067 L 364.1964056482673 204.48178062670746 L 364.34753180067696 206.4719571357283 L 364.49865795308665 203.38755073798376 L 364.95203641031617 200.28111286596948 L 365.1031625627263 199.39251007042873 L 365.254288715136 200.0093913499777 L 365.4054148675457 202.6972312108694 L 365.55654101995583 204.92241011209944 L 366.00991947718535 195.82341123875278 L 366.16104562959504 195.27996820676918 L 366.3121717820052 193.33385464628748 L 366.61442408682456 197.72546185069535 L 367.0678025440541 195.34606262957806 L 367.2189286964642 190.30085502183863 L 367.3700548488739 192.03399766438082 L 367.5211810012836 193.33385464628748 L 367.67230715369374 193.86995385351457 L 368.12568561092326 192.9593195837042 L 368.27681176333294 192.37181360318147 L 368.4279379157431 190.9250801261441 L 368.5790640681528 189.10381158652342 L 368.73019022056246 189.8308502374204 L 369.183568677792 185.9973737145092 L 369.3346948302021 187.8994243264517 L 369.4858209826118 184.50657728893265 L 369.6369471350215 187.31191834592886 L 369.78807328743164 185.49064980630834 L 370.24145174466116 183.83094541133147 L 370.39257789707085 182.0390521707369 L 370.543704049481 174.28397322783616 L 370.6948302018907 169.29017239339242 L 371.2993348115299 166.06623332527363 L 371.45046096394003 168.61454051579125 L 371.6015871163497 166.16904687186508 L 371.7527132687594 168.18859867991216 L 372.35721787839907 163.2168293197381 L 372.50834403080876 165.2437249525417 L 372.65947018321845 176.79556129457103 L 372.8105963356286 187.19441714982435 L 372.9617224880383 181.3781079426488 L 373.4151009452678 182.0463959954934 L 373.56622709767794 189.85288171168997 L 373.7173532500876 192.34243830415528 L 373.8684794024973 190.31554267135164 L 374.01960555490746 197.54921005653853 L 374.62411016454666 191.95321559205894 L 374.77523631695635 197.24811324152057 L 374.9263624693665 195.36075027909112 L 375.0774886217762 219.5733405013865 L 375.5308670790057 226.9245090826779 L 375.68199323141585 225.14730349159646 L 375.83311938382553 225.38230588380554 L 375.9842455362352 231.11783301865933 L 376.13537168864536 234.31239678775188 L 376.5887501458749 232.0504987627392 L 376.73987629828457 233.4458254664808 L 376.89100245069426 226.322315452642 L 377.0421286031044 236.63304541081698 L 377.1932547555141 233.32098044561974 L 377.6466332127436 231.72002664869513 L 377.79775936515375 229.53891069600422 L 377.94888551756344 231.0003318225547 L 378.1000116699731 229.56828599503046 L 378.25113782238327 231.97706051517383 L 378.8556424320225 225.9698118643284 L 379.00676858443217 228.23905371409757 L 379.1578947368423 224.55979751107367 L 379.309020889252 226.36637840118124 L 379.7623993464815 224.86823815084819 L 379.91352549889166 230.54501468764954 L 380.06465165130135 233.1887916000021 L 380.21577780371103 236.89007927729568 L 380.3669039561212 236.6183577613039 L 380.8202824133507 232.2928449797048 L 380.9714085657604 226.14606365848522 L 381.1225347181701 223.0175943122013 L 381.2736608705802 216.2098687628935 L 381.4247870229899 209.145109347107 L 381.8781654802194 210.41559102998752 L 382.0292916326291 212.09732689923396 L 382.18041778503925 200.15626784510835 L 382.33154393744894 196.71201403429353 L 382.4826700898591 197.88702599533912 L 382.9360485470886 209.90152329703017 L 383.0871746994983 208.41807069621007 L 383.238300851908 208.15369300497485 L 383.3894270043181 207.53681172542593 L 383.5405531567278 212.2368595696082 L 383.99393161395733 214.0728157587419 L 384.145057766367 220.31506680179655 L 384.29618391877716 214.19766077960298 L 384.44731007118685 210.12183803972619 L 384.598436223597 210.26137071010027 L 385.0518146808265 210.4376225042571 L 385.2029408332362 207.3091531579733 L 385.3540669856459 207.0080563429554 L 385.50519313805603 205.77429378385756 L 386.10969774769524 204.15130851266332 L 386.2608239001049 206.20023561973653 L 386.41195005251507 209.6371456057949 L 386.56307620492476 206.73633482696357 L 386.71420235733444 207.6690005710435 L 387.1675808145644 202.8881706545393 L 387.3187069669741 192.57744069636442 L 387.4698331193838 190.93976777565712 L 387.62095927179394 186.31315817904022 L 387.7720854242036 219.47052695479505 L 388.22546388143314 219.50724607857768 L 388.37659003384283 215.87939664884948 L 388.527716186253 216.42283968083308 L 388.67884233866266 221.73976880456433 L 388.82996849107235 223.259940529167 L 389.2833469483023 233.06394657914103 L 389.434473100712 234.95865336632704 L 389.5855992531217 234.86318364449198 L 389.73672540553184 232.79956888790576 L 389.88785155794153 237.42617848452267 L 390.34123001517105 233.8277043538206 L 390.49235616758074 251.62179173890456 L 390.6434823199909 249.13223514643926 L 390.79460847240057 257.2765368014364 L 390.94573462481026 261.3376718918002 L 391.3991130820398 240.40042751091931 L 391.5502392344499 249.65364670415323 L 391.7013653868596 252.341486565045 L 391.85249153926975 248.30972677370738 L 392.00361769167944 250.76990806714656 L 392.45699614890896 250.44677977785898 L 392.60812230131864 257.4968515441324 L 392.7592484537288 260.3903184982072 L 392.9103746061385 274.65202617539785 L 393.06150075854816 276.82579830333214 L 393.5148792157777 273.07310385274286 L 393.6660053681878 273.1391982755517 L 393.8171315205975 274.3142102365972 L 393.96825767300766 263.30581692655153 L 394.11938382541734 266.85288428395785 L 394.72388843505655 269.2469711545882 L 394.8750145874667 261.1687639223999 L 395.0261407398764 252.18726624515773 L 395.17726689228607 257.2398176776537 L 395.6306453495156 266.93366635627973 L 395.78177150192573 267.47710938826333 L 395.9328976543354 275.37906482629484 L 396.0840238067451 265.839436467556 L 396.23514995915525 264.7452065788323 L 396.68852841638477 268.64477752455235 L 396.83965456879446 257.77591688488076 L 396.9907807212046 255.36714236473733 L 397.1419068736143 256.241057510765 L 397.293033026024 256.2777766345477 L 397.7464114832535 264.70114363029313 L 397.89753763566364 266.3975671490527 L 398.0486637880733 269.4819735467973 L 398.199789940483 274.58593175258903 L 398.35091609289316 276.3631373436705 L 398.8042945501227 276.80376682906257 L 398.95542070253236 289.89046254520764 L 399.1065468549425 296.7275633935416 L 399.2576730073522 300.7372917106096 L 399.4087991597619 302.89637618903083 L 400.01330376940155 303.24887977734454 L 400.16442992181123 292.8720553963608 L 400.3155560742209 288.20138285120464 L 400.46668222663106 280.17458239231206 L 400.9200606838606 274.049832545362 L 401.0711868362703 264.2311388458749 L 401.2223129886804 262.6595603479765 L 401.3734391410901 260.6914153132251 L 401.5245652934998 285.9615163004615 L 401.9779437507293 281.13662343541813 L 402.12906990313945 269.81978948559794 L 402.28019605554914 272.82341381102066 L 402.43132220795883 267.4550779139937 L 402.58244836036897 263.5995699168129 L 403.0358268175985 264.4000468152752 L 403.1869529700082 261.7122069543835 L 403.3380791224183 267.7928938527943 L 403.489205274828 267.32288906837607 L 403.6403314272377 267.4257026149675 L 404.0937098844672 263.34253605033416 L 404.24483603687736 263.7684778862132 L 404.39596218928705 251.65851086268725 L 404.54708834169674 250.35131005602403 L 404.6982144941069 256.13824396417345 L 405.1515929513364 252.37086186407112 L 405.3027191037461 253.57524912414283 L 405.4538452561558 262.365807357715 L 405.6049714085659 262.16752408928863 L 405.7560975609756 266.3241289014873 L 406.2094760182051 266.882259582984 L 406.36060217061527 263.26175397801234 L 406.51172832302495 269.40853529923197 L 406.66285447543464 279.82207880399835 L 406.8139806278448 284.1916545341366 L 407.2673590850743 282.686170459047 L 407.418485237484 291.99814025033317 L 407.5696113898937 289.6260848539724 L 407.7207375423038 292.29923706535106 L 407.8718636947135 286.5343346314712 L 408.32524215194303 291.0434430319836 L 408.4763683043532 293.0042442419784 L 408.62749445676286 285.432760917991 L 408.77862060917255 283.33977086237854 L 408.9297467615827 278.11096763572573 L 409.5342513712219 282.44382424208135 L 409.6853775236316 277.9053405425428 L 409.83650367604173 273.7927986788833 L 409.9876298284514 273.8221739779094 L 410.44100828568094 269.3204094021536 L 410.5921344380911 270.67167315735594 L 410.74326059050077 270.51745283746874 L 410.89438674291046 270.2090121976943 L 411.0455128953206 263.5334754940041 L 411.4988913525501 250.21912121040646 L 411.6500175049598 246.41501998652132 L 411.8011436573695 244.5496884983615 L 411.95226980977964 246.4003323370083 L 412.1033959621893 236.2585103482337 L 412.55677441941884 233.96723702419484 L 412.707900571829 236.34663624531214 L 412.8590267242387 235.96475735797225 L 413.01015287664836 237.3600840617139 L 413.1612790290585 237.48492908257498 L 413.614657486288 239.88635977796184 L 413.7657836386977 228.22436606458456 L 413.9169097911074 231.07377007012008 L 414.06803594351754 234.26099001445618 L 414.21916209592723 229.6050051188131 L 414.67254055315675 227.7763927544359 L 414.82366670556644 225.90371744151958 L 414.9747928579766 224.5010469130214 L 415.12591901038627 226.24153338032016 L 415.2770451627964 181.7967059537712 L 415.73042362002593 169.8556468996456 L 415.8815497724356 177.111345759102 L 416.0326759248453 177.00118838775398 L 416.18380207725545 174.05631466038352 L 416.33492822966514 173.65974812353068 L 416.78830668689466 170.74424969518634 L 416.93943283930435 169.20204649631398 L 417.0905589917145 170.7662811694559 L 417.2416851441242 169.21673414582705 L 417.3928112965343 172.80052062701606 L 417.84618975376384 171.84582340866655 L 417.9973159061735 171.40519392327445 L 418.1484420585832 168.04172218478152 L 418.29956821099336 165.03809785935874 L 418.45069436340304 164.4432480540794 L 418.90407282063256 163.20214167022505 L 419.05519897304225 164.63418749774928 L 419.2063251254524 166.05888950051707 L 419.3574512778621 170.23752578698537 L 419.5085774302722 180.44544219856886 L 419.96195588750174 186.18831315817908 L 420.11308203991143 194.81730724710752 L 420.2642081923211 194.94215226796865 L 420.41533434473126 185.38783625971683 L 420.56646049714095 189.5958478452112 L 421.01983895437047 189.30943867970637 L 421.17096510678016 195.3387188048215 L 421.3220912591903 186.5555043960058 L 421.6243435640097 190.20538530000363 L 422.07772202123965 195.9996630329096 L 422.22884817364934 215.38736039016163 L 422.379974326059 209.0422958005155 L 422.53110047846917 203.55645870738397 L 422.68222663087886 202.6898873861129 L 423.1356050881084 198.75359731661018 L 423.28673124051807 192.30571918037265 L 423.4378573929282 189.80881876315078 L 423.5889835453379 189.10381158652342 L 423.7401096977476 188.58240002880945 L 424.19348815497756 186.81253826248457 L 424.34461430738725 186.59956734454505 L 424.49574045979693 189.98507055730767 L 424.6468666122071 188.94959126663616 L 424.79799276461677 189.6178793194809 L 425.2513712218463 186.48940997319704 L 425.402497374256 180.60700634321256 L 425.5536235266661 178.82980075213118 L 425.7047496790758 179.75512267145456 L 426.309254288715 181.11373025141353 L 426.46038044112515 183.6546936171746 L 426.61150659353484 182.12717806781535 L 426.762632745945 183.69875656571378 L 426.9137588983547 187.2898868716593 L 427.3671373555842 179.66699677437612 L 427.5182635079939 181.30466969508342 L 427.669389660404 176.20071148929168 L 427.8205158128137 172.94739712214675 L 427.9716419652234 170.78831264372548 L 428.4250204224529 172.42598556443278 L 428.57614657486306 171.10409710825655 L 428.72727272727275 170.4725281791945 L 428.8783988796829 170.6047170248121 L 429.0295250320926 165.10419228216756 L 429.6340296417318 153.75798303332124 L 429.78515579414193 159.54491694147066 L 429.9362819465516 163.20214167022505 L 430.0874080989613 174.17381585648803 L 430.5407865561908 174.7246027132282 L 430.69191270860097 168.24000545320797 L 430.84303886101065 170.74424969518634 L 430.99416501342034 170.53127877724683 L 431.1452911658305 182.13452189257185 L 431.59866962306 182.59718285223352 L 431.7497957754697 174.75397801225438 L 431.90092192787984 174.04897083562702 L 432.0520480802895 175.40757841558593 L 432.2031742326992 174.79804096079351 L 432.65655268992873 172.36723496638052 L 432.8076788423389 169.36361064095775 L 432.95880499474856 170.74424969518634 L 433.10993114715825 170.78831264372548 L 433.2610572995684 164.86918988995842 L 433.7144357567979 162.18869385382322 L 433.8655619092076 165.12622375643718 L 434.01668806161774 165.07481698314137 L 434.16781421402743 164.3110592084618 L 434.3189403664371 160.77133567581194 L 434.9234449760768 175.36351546704668 L 435.07457112848647 174.5483509190713 L 435.22569728089616 176.38430710820506 L 435.3768234333063 175.48836048790787 L 435.8302018905358 173.02083536971213 L 435.9813280429455 182.30342986197218 L 436.13245419535565 182.2813983877026 L 436.28358034776534 175.84086407622152 L 436.434706500175 182.40624340856363 L 436.88808495740454 188.9863103904189 L 437.0392111098147 188.50896178124412 L 437.1903372622244 188.90552831809703 L 437.34146341463406 197.3288953138425 L 437.4925895670442 199.96532840143846 L 437.9459680242737 204.90037863782987 L 438.0970941766834 205.2161631023609 L 438.24822032909356 214.3665687490033 L 438.39934648150324 211.23809940271946 L 438.55047263391293 211.45841414541553 L 439.00385109114245 200.1195487213257 L 439.1549772435526 199.5173550912898 L 439.3061033959623 195.96294390912698 L 439.45722954837197 192.48931479928598 L 439.6083557007821 197.74014950020842 L 440.06173415801163 200.95674474357065 L 440.2128603104213 196.27872837365794 L 440.363986462831 196.19794630133606 L 440.51511261524115 192.58478452112092 L 440.66623876765084 188.8834968438274 L 441.11961722488036 191.90915264351975 L 441.2707433772905 205.561322865918 L 441.4218695297002 201.82331606484183 L 441.5729956821099 197.54921005653853 L 441.72412183452 198.90047381174094 L 442.17750029174954 199.48063596750717 L 442.3286264441592 204.44506150292472 L 442.4797525965689 200.28111286596948 L 442.63087874897906 198.64343994526217 L 442.78200490138875 233.75426610625527 L 443.23538335861826 236.58898246227773 L 443.3865095110284 240.48855340799776 L 443.5376356634381 237.4041470102531 L 443.6887618158478 237.86680796991476 L 444.29326642548745 237.9035270936975 L 444.44439257789713 232.19737525786985 L 444.5955187303068 228.5695258281417 L 444.74664488271696 228.41530550825445 L 444.89777103512665 223.91354093249856 L 445.35114949235617 227.98201984761891 L 445.5022756447663 231.41158600892066 L 445.653401797176 230.01625930517906 L 445.8045279495857 231.1325206681724 L 445.95565410199583 230.37610671824928 L 446.40903255922535 228.62827642619402 L 446.56015871163504 224.97105169743963 L 446.7112848640447 230.2659493469012 L 446.86241101645487 230.55970233716266 L 447.01353716886456 234.59880595325683 L 447.4669156260941 242.7724829072801 L 447.6180417785042 233.9305179004121 L 447.7691679309139 234.40786650958694 L 447.9202940833236 233.35035574464587 L 448.07142023573374 238.65259721886406 L 448.52479869296326 242.79451438154967 L 448.67592484537295 242.88998410338462 L 448.82705099778264 241.85450481271323 L 448.9781771501928 242.98545382521957 L 449.12930330260247 240.95121436765947 L 449.7338079122417 234.98802866535317 L 449.8849340646518 237.49961673208804 L 450.0360602170615 235.69303584198053 L 450.18718636947165 239.3502605707348 L 450.64056482670117 240.8337131715549 L 450.79169097911085 242.32450959713145 L 450.94281713152054 242.22169605054 L 451.0939432839307 244.01358929113445 L 451.2450694363404 249.31583076535264 L 451.6984478935699 252.82617899897627 L 451.8495740459796 250.15302678759758 L 452.0007001983897 254.1333798056395 L 452.1518263507994 256.02808659282545 L 452.30295250320955 267.3008575941065 L 452.7563309604391 267.623985883394 L 452.90745711284876 261.44048543839165 L 453.05858326525845 265.839436467556 L 453.2097094176686 270.8258934772432 L 453.3608355700783 274.7474958972328 L 453.8142140273078 268.9311866900572 L 453.9653401797175 260.9631368292169 L 454.11646633212763 258.0843575246552 L 454.2675924845373 251.61444791414806 L 454.418718636947 240.85574464582453 L 455.02322324658667 232.47644059861818 L 455.17434939899636 230.33204376971003 L 455.3254755514065 222.07758474336487 L 455.4766017038162 232.80691271266227 L 455.9299801610457 236.2658541729902 L 456.0811063134554 231.32346011184228 L 456.23223246586554 228.20233459031493 L 456.3833586182752 235.04677926340537 L 456.5344847706849 184.6093908355241 L 456.9878632279149 186.57753587027543 L 457.1389893803246 180.98888523055246 L 457.29011553273426 186.27643905525747 L 457.4412416851444 177.72822703865097 L 457.5923678375541 169.47376801230575 L 458.0457462947836 168.92298115556565 L 458.1968724471933 166.32326719175234 L 458.34799859960344 177.55931906925065 L 458.49912475201313 174.82741625981964 L 458.6502509044228 180.1516892083074 L 459.10362936165234 177.88979118329473 L 459.2547555140625 188.4428673584353 L 459.40588166647217 182.00233304695428 L 459.5570078188823 199.37047859615916 L 459.708133971292 198.2542172331659 L 460.1615124285215 222.5035265792439 L 460.3126385809312 202.388790571095 L 460.46376473334135 220.30772297704 L 460.61489088575104 210.6726248964663 L 460.7660170381607 209.46823763639458 L 461.21939549539024 214.2710990271683 L 461.3705216478004 227.6588915583314 L 461.5216478002101 231.95502904090426 L 461.6727739526202 252.71602162762827 L 461.8239001050299 262.9680009877509 L 462.2772785622594 257.6437280392631 L 462.4284047146691 242.47872991701865 L 462.57953086707926 239.19604025084766 L 462.73065701948894 241.58278329672146 L 462.88178317189863 236.57429481276466 L 463.33516162912815 227.60014096027908 L 463.4862877815383 226.41044134972043 L 463.637413933948 226.21950190605054 L 463.78854008635767 232.432377650079 L 463.9396662387678 238.0577474135847 L 464.544170848407 240.01120479882303 L 464.69529700081716 231.30877246232922 L 464.84642315322685 230.62579675997142 L 464.99754930563654 238.05040358882815 L 465.45092776286606 234.1802079421343 L 465.6020539152762 234.6208374275264 L 465.7531800676859 232.74816211460995 L 465.9043062200956 225.044489945005 L 466.0554323725057 222.01883414531267 L 466.50881082973524 222.02617797006917 L 466.6599369821449 222.0555532690953 L 466.81106313455507 227.51201506320064 L 466.96218928696476 241.1274661618163 L 467.11331543937445 237.56571115489686 L 467.56669389660397 232.88035096022764 L 467.7178200490141 227.4092015166092 L 467.8689462014238 235.12021751097075 L 468.0200723538335 236.10429002834644 L 468.1711985062436 245.2546956749889 L 468.62457696347315 259.5898415997449 L 468.77570311588283 254.90448140507567 L 468.926829268293 252.8482104732459 L 469.07795542070266 245.4970418919545 L 469.22908157311235 245.1959450769366 L 469.6824600303419 229.0028114887773 L 469.833586182752 224.58917281009985 L 469.9847123351617 220.68225803962326 L 470.1358384875714 212.9785858700182 L 470.28696463998153 188.97162274090584 L 470.74034309721105 195.77934829021365 L 470.89146924962074 189.8308502374204 L 471.0425954020309 197.035142323581 L 471.1937215544406 194.85402637089027 L 471.34484770685026 189.8455378869334 L 471.7982261640798 185.49064980630834 L 471.9493523164899 195.2285614334735 L 472.1004784688996 192.91525663516506 L 472.2516046213093 183.83828923608797 L 472.40273077371944 182.75874699687733 L 472.85610923094896 188.26661556427848 L 473.00723538335865 198.54062639867072 L 473.15836153576834 194.00948652388865 L 473.3094876881785 184.69751673260254 L 473.46061384058817 185.6962768994913 L 473.9139922978177 176.74415452127528 L 474.0651184502278 173.79928079390476 L 474.2162446026375 182.16389719159798 L 474.3673707550472 186.47472232368392 L 474.51849690745735 176.7294668717622 L 474.97187536468687 173.31458835997353 L 475.12300151709655 170.70018674664715 L 475.27412766950624 174.4381935477233 L 475.4252538219164 182.2226477896503 L 475.5763799743261 186.62159881881468 L 476.0297584315556 196.85889052942417 L 476.18088458396574 197.54921005653853 L 476.3320107363754 204.81225274075143 L 476.63426304119525 210.03371214264774 L 477.0876414984248 191.5346175809364 L 477.23876765083446 195.3974694028738 L 477.38989380324415 183.30953385361744 L 477.5410199556543 172.74911385372036 L 477.692146108064 167.90953333916383 L 478.1455245652935 164.02465004295692 L 478.29665071770364 165.40528909718552 L 478.44777687011333 165.6843544379338 L 478.598903022523 171.07472180923043 L 478.75002917493316 162.72479306105026 L 479.2034076321627 164.21558948662687 L 479.35453378457237 164.03933769246999 L 479.50565993698206 169.59126920841032 L 479.6567860893922 168.51172696919974 L 479.8079122418019 163.79699147550434 L 480.2612906990314 166.8299910999532 L 480.41241685144155 160.55836475787248 L 480.56354300385124 163.8998050220958 L 480.7146691562609 161.05040101656027 L 480.86579530867107 158.52412530031233 L 481.4702999183103 153.30266589841608 L 481.62142607071996 153.70657626002543 L 481.7725522231301 151.7237435757611 L 481.9236783755398 149.1534049109739 L 482.528182985179 134.82560281097443 L 482.67930913758914 132.7179251058489 L 482.83043528999883 139.5256506551567 L 482.981561442409 146.1277491112815 L 483.4349398996385 166.36733014029153 L 483.5860660520482 165.86795005684718 L 483.73719220445787 163.79699147550434 L 483.888318356868 161.09446396509952 L 484.0394445092777 164.5093424768882 L 484.6439491189169 161.8729093892922 L 484.79507527132705 158.69303326971266 L 484.94620142373674 153.80204598186037 L 485.0973275761469 193.15025902737415 L 485.5507060333764 193.4954187909313 L 485.7018321857861 196.8662343541808 L 485.8529583381958 205.2675698756566 L 486.0040844906059 206.28836151681497 L 486.1552106430156 197.56389770605153 L 486.6085891002451 199.24563357529803 L 486.7597152526548 197.4684279842166 L 486.91084140506496 196.93967260174605 L 487.06196755747465 193.7965156059492 L 487.21309370988433 185.55674422911704 L 487.6664721671143 176.1860238397786 L 487.817598319524 177.88979118329473 L 487.9687244719337 175.62789315828195 L 488.1198506243438 174.44553737247986 L 488.2709767767535 178.52136011235672 L 488.72435523398303 173.90209434049626 L 488.8754813863927 175.69398758109082 L 489.02660753880286 178.77839397883548 L 489.17773369121255 178.07338680220812 L 489.32885984362224 179.45402585643666 L 489.9333644532619 172.58020588432004 L 490.0844906056716 177.0305636867801 L 490.23561675808173 178.37448361722602 L 490.3867429104914 175.59117403449932 L 490.84012136772094 176.0244596951349 L 490.9912475201306 169.35626681620124 L 491.14237367254077 169.4590803627927 L 491.29349982495046 166.41139308883078 L 491.44462597736015 167.25593293583228 L 491.89800443458967 172.39661026540665 L 492.0491305869998 179.21902346422752 L 492.2002567394095 177.86775970902517 L 492.35138289181964 177.61806966730296 L 492.5025090442293 182.67796492455545 L 492.95588750145885 179.07949079385338 L 493.10701365386853 169.8042401263499 L 493.2581398062787 171.11878475776956 L 493.40926595868837 167.34405883291066 L 493.56039211109805 164.47262335310558 L 494.0137705683276 157.90724402076341 L 494.1648967207377 158.26709143383363 L 494.3160228731474 153.50094916684247 L 494.46714902555755 149.0432475396259 L 494.61827517796723 151.5842109053869 L 495.07165363519675 146.63447301948236 L 495.22277978760644 148.33089653824197 L 495.3739059400166 141.9123937010305 L 495.5250320924263 147.31010489708365 L 495.67615824483596 152.5756272475191 L 496.1295367020655 148.40433478580735 L 496.2806628544756 151.56217943111727 L 496.4317890068853 157.04801652424885 L 496.582915159295 159.12631893034813 L 497.18741976893466 160.21320499431533 L 497.33854592134435 163.13604724741623 L 497.4896720737545 156.4531667189695 L 497.6407982261642 145.40071046038457 L 497.79192437857387 164.79575164239304 L 498.2453028358034 178.40385891625215 L 498.39642898821353 175.8335202514649 L 498.5475551406232 177.39041109985033 L 498.6986812930329 183.37562827642626 L 498.84980744544305 185.75502749754355 L 499.30318590267257 184.62407848503716 L 499.45431205508226 181.9288947993889 L 499.6054382074924 175.7233628801169 L 499.7565643599021 171.5006636451094 L 499.9076905123118 171.8605110581796 L 500.3610689695413 179.2998055365494 L 500.51219512195144 179.60824617632392 L 500.6633212743611 177.52994377022452 L 500.8144474267708 174.76866566176744 L 500.96557357918095 185.08673944469882 L 501.4189520364105 177.316972852285 L 501.57007818882016 173.46880867986079 L 501.7212043412303 176.14196089123942 L 501.87233049364 172.82989592604224 L 502.0234566460497 179.02074019580107 L 502.4768351032792 179.92403064085488 L 502.62796125568934 174.70257123895857 L 502.77908740809903 161.61587552281355 L 502.9302135605087 165.934044479656 L 503.08133971291886 182.56780755320744 L 503.5347181701484 172.49942381199816 L 503.68584432255807 182.27405456294605 L 503.8369704749682 175.91430232378684 L 503.9880966273779 180.17372068257708 L 504.1392227797876 189.08178011225385 L 504.74372738942725 187.01816535566752 L 504.89485354183694 191.50524228191028 L 505.0459796942466 196.9176411274765 L 505.19710584665677 204.17333998693294 L 505.6504843038863 198.58468934720992 L 505.801610456296 204.5919379980554 L 505.95273660870566 197.130612045416 L 506.1038627611158 198.84906703844513 L 506.2549889135255 197.21873794249439 L 506.708367370755 205.99460852655358 L 506.85949352316516 208.4915089437754 L 507.01061967557484 211.43638267114585 L 507.16174582798453 212.93452292147902 L 507.3128719803947 208.92479460441098 L 507.7662504376242 204.2688097087679 L 507.9173765900339 196.4256048687887 L 508.06850274244357 199.37782242091566 L 508.2196288948537 208.4107268714535 L 508.3707550472634 203.80614874910617 L 508.8241335044929 211.72279183665074 L 508.97525965690306 208.7999495835499 L 509.12638580931275 205.40710254603084 L 509.27751196172244 209.07167109954173 L 509.4286381141326 197.49780328324272 L 509.8820165713621 197.20405029298132 L 510.0331427237718 191.79899527217168 L 510.3353950285916 185.85784104413506 L 510.4865211810013 193.15760285213065 L 510.9398996382308 193.13557137786108 L 511.09102579064097 196.30075984792757 L 511.24215194305066 204.0191196670457 L 511.39327809546035 204.54053122475966 L 511.5444042478705 200.10486107181265 L 511.9977827051 201.27987303285823 L 512.1489088575097 199.9506407519254 L 512.3000350099194 196.99107937504186 L 512.4511611623295 187.95817492450402 L 512.6022873147392 174.91554215689808 L 513.0556657719687 171.47128834608327 L 513.2067919243789 177.30228520277188 L 513.3579180767886 176.99384456299748 L 513.5090442291983 173.05021066873826 L 513.6601703816084 157.18754919462293 L 514.1135488388379 159.1410065798613 L 514.2646749912476 158.6489703211734 L 514.4158011436573 158.86194123911298 L 514.5669272960674 161.74806436843113 L 514.7180534484771 152.50953282471028 L 515.1714319057066 151.41530293598657 L 515.3225580581163 153.08969498047657 L 515.4736842105265 151.84858859662216 L 515.6248103629362 151.76046269954372 L 515.7759365153463 152.01749656602243 L 516.2293149725758 138.79126817950322 L 516.3804411249855 132.43885976510057 L 516.5315672773952 133.2613681378325 L 516.6826934298053 129.34710954259936 L 516.833819582215 126.211296371559 L 517.2871980394445 127.38630833260459 L 517.4383241918542 131.8146346607951 L 517.5894503442644 126.18192107253293 L 517.7405764966741 126.4609864132812 L 517.8917026490842 125.1170664828353 L 518.3450811063137 132.0276055787346 L 518.4962072587234 126.13051429923712 L 518.6473334111331 118.22855886120561 L 518.7984595635432 122.8771999320922 L 518.9495857159529 120.37295569011377 L 519.5540903255921 123.34720471651042 L 519.7052164780023 123.5822071087195 L 519.856342630412 109.86394246351244 L 520.0074687828217 104.90686075285146 L 520.4608472400516 108.85783847186713 L 520.6119733924613 115.15884011297402 L 520.763099544871 116.12088115608015 L 520.9142256972812 104.98764282517334 L 521.0653518496908 102.31449061379465 L 521.5187303069204 102.09417587109851 L 521.66985645933 95.99880132317469 L 521.8209826117402 89.22779489764957 L 521.9721087641499 88.77247776274442 L 522.1232349165596 84.46165263065836 L 522.5766133737895 73.15950633035129 L 522.7277395261992 73.32107047499505 L 522.8788656786089 70.16322582968508 L 523.0299918310191 67.93070310369842 L 523.1811179834287 69.3994680550054 L 523.6344964406583 64.05316363224813 L 523.785622593068 67.57085569062826 L 523.9367487454781 63.52440824977759 L 524.0878748978878 59.448585509900795 L 524.2390010502975 59.74233850016219 L 524.692379507527 66.94663058632273 L 524.8435056599371 77.0443896265582 L 524.9946318123468 76.69922986300116 L 525.145757964757 71.61730313147893 L 525.2968841171667 76.55969719262691 L 525.7502625743962 79.3283191258405 L 525.9013887268059 76.59641631640955 L 526.052514879216 68.67242940410847 L 526.2036410316257 113.0952253563878 L 526.3547671840354 122.79641785977032 L 526.8081456412649 125.08769118380923 L 526.959271793675 123.85392862471133 L 527.1103979460847 126.09379517545449 L 527.2615240984949 125.75597923665384 L 527.4126502509046 127.67271749810948 L 528.1682810129539 123.89064774849402 L 528.3194071653636 118.53699950098007 L 528.4705333177733 118.29465328401449 L 528.9239117750028 121.9371903632557 L 529.075037927413 122.84782463306601 L 529.2261640798226 133.5698087776069 L 529.3772902322323 144.46070089154813 L 529.5284163846425 136.57343310302969 L 529.981794841872 134.46575539790422 L 530.1329209942817 139.49627535613058 L 530.2840471466918 144.26976144787824 L 530.4351732991015 148.15464474408515 L 530.5862994515112 148.21339534213746 L 531.0396779087407 132.7693318791446 L 531.1908040611509 131.47681872199445 L 531.3419302135605 134.48778687217379 L 531.6441825183804 132.94558367330143 L 532.0975609756099 137.95407215725822 L 532.2486871280196 130.9333756900109 L 532.3998132804297 121.41577880554178 L 532.5509394328394 115.3791548556701 L 532.7020655852491 110.6203564134355 L 533.1554440424786 112.91162973747441 L 533.3065701948888 116.01072378473214 L 533.4576963472985 118.36809153157975 L 533.6088224997081 115.93728553716676 L 533.7599486521183 121.01921226868882 L 534.2133271093478 120.13060947314818 L 534.3644532617575 111.7145863021592 L 534.5155794141676 111.21520621871491 L 534.6667055665773 107.4404802938559 L 534.817831718987 107.98392332583944 L 535.2712101762165 94.16284513404094 L 535.4223363286267 93.94987421610142 L 535.5734624810364 94.65488139272873 L 535.724588633446 93.00252082250847 L 535.8757147858562 97.94491488365634 L 536.3290932430857 102.44667945941228 L 536.6313455479055 102.90934041907394 L 536.7824717003152 104.80404720625995 L 536.9335978527249 109.41596915336379 L 537.3869763099544 104.00357030779765 L 537.6892286147743 92.3489204191768 L 537.840354767184 92.0404797794024 L 537.9914809195941 81.53881037755752 L 538.4448593768236 83.90352194916181 L 538.5959855292333 84.96837653885939 L 538.747111681643 81.42865300620952 L 538.8982378340531 78.96112788801383 L 539.0493639864628 80.05535777673754 L 539.5027424436923 92.3489204191768 L 539.6538685961025 91.11515786007897 L 539.8049947485122 98.26804317294386 L 539.9561209009219 101.11010335372282 L 540.107247053332 106.11124801292317 L 540.7117516629712 107.31563527299488 L 540.8628778153809 78.94644023850071 L 541.014003967791 69.61243897294491 L 541.1651301202007 70.00900550979782 L 541.6185085774302 72.1680899882191 L 541.7696347298404 70.00166168504131 L 541.9207608822501 69.89150431369319 L 542.0718870346598 68.52555290897772 L 542.2230131870699 53.9039978187169 L 542.6763916442994 66.08005926505166 L 542.8275177967091 61.1450090286603 L 542.9786439491188 57.89169466151532 L 543.129770101529 55.11572890354512 L 543.2808962539386 46.72908103158238 L 543.7342747111682 48.89550933476016 L 543.8854008635783 50.15864719288413 L 544.036527015988 48.57238104547264 L 544.1876531683977 44.92984396623126 L 544.3387793208078 41.20652481466823 L 544.943283930447 30.954545454545496 L 545.0944100828567 41.522309279199135 L 545.2455362352669 39.26775507894297 L 545.3966623876765 36.198036330711375 L 545.8500408449061 42.76341566305359 L 546.0011669973162 43.23342044747176 L 546.1522931497259 36.14662955741562 L 546.3034193021356 35.10380644198767 L 546.4545454545457 31.439237888476782" stroke-miterlimit="10"/></g></g><g><g/><g><path fill="#ffffff" stroke="#e5e5e5" paint-order="fill stroke markers" d=" M 62 15 L 147.4375 15 L 147.4375 55 L 62 55 L 62 15 Z" fill-opacity="0.95" stroke-miterlimit="10" stroke-opacity="0.5"/><text fill="#444444" stroke="none" font-family="helvetica" font-size="10pt" font-style="normal" font-weight="normal" text-decoration="normal" x="97" y="35" text-anchor="start" dominant-baseline="central">GOOG</text><g><path fill="none" stroke="#5c97bf" paint-order="fill stroke markers" d=" M 72 35 L 92 35" stroke-miterlimit="10"/></g></g></g><g><g fill="#444444"><path fill="" stroke="black" paint-order="fill stroke markers" d=" M 52 576 L 570 576" stroke-miterlimit="10"/><g transform="translate(151,587) rotate(0,0,0)"><text fill="" stroke="none" font-family="helvetica" font-size="8pt" font-style="normal" font-weight="normal" text-decoration="normal" x="0" y="0" text-anchor="middle" dominant-baseline="hanging">2006</text><g transform="rotate(0,0,0) translate(-151,-587) translate(261,587) rotate(0,0,0)"><text fill="" stroke="none" font-family="helvetica" font-size="8pt" font-style="normal" font-weight="normal" text-decoration="normal" x="0" y="0" text-anchor="middle" dominant-baseline="hanging">2008</text><g transform="rotate(0,0,0) translate(-261,-587) translate(372,587) rotate(0,0,0)"><text fill="" stroke="none" font-family="helvetica" font-size="8pt" font-style="normal" font-weight="normal" text-decoration="normal" x="0" y="0" text-anchor="middle" dominant-baseline="hanging">2010</text><g transform="rotate(0,0,0) translate(-372,-587) translate(482,587) rotate(0,0,0)"><text fill="" stroke="none" font-family="helvetica" font-size="8pt" font-style="normal" font-weight="normal" text-decoration="normal" x="0" y="0" text-anchor="middle" dominant-baseline="hanging">2012</text><g transform="rotate(0,0,0) translate(-482,-587)"/></g></g></g></g></g><g fill="#444444"><path fill="" stroke="black" paint-order="fill stroke markers" d=" M 52 576 L 52 5" stroke-miterlimit="10"/><g transform="translate(41,550) rotate(0,0,0)"><text fill="" stroke="none" font-family="helvetica" font-size="8pt" font-style="normal" font-weight="normal" text-decoration="normal" x="0" y="0" text-anchor="end" dominant-baseline="central">100</text><g transform="rotate(0,0,0) translate(-41,-550) translate(41,477) rotate(0,0,0)"><text fill="" stroke="none" font-family="helvetica" font-size="8pt" font-style="normal" font-weight="normal" text-decoration="normal" x="0" y="0" text-anchor="end" dominant-baseline="central">200</text><g transform="rotate(0,0,0) translate(-41,-477) translate(41,403) rotate(0,0,0)"><text fill="" stroke="none" font-family="helvetica" font-size="8pt" font-style="normal" font-weight="normal" text-decoration="normal" x="0" y="0" text-anchor="end" dominant-baseline="central">300</text><g transform="rotate(0,0,0) translate(-41,-403) translate(41,330) rotate(0,0,0)"><text fill="" stroke="none" font-family="helvetica" font-size="8pt" font-style="normal" font-weight="normal" text-decoration="normal" x="0" y="0" text-anchor="end" dominant-baseline="central">400</text><g transform="rotate(0,0,0) translate(-41,-330) translate(41,256) rotate(0,0,0)"><text fill="" stroke="none" font-family="helvetica" font-size="8pt" font-style="normal" font-weight="normal" text-decoration="normal" x="0" y="0" text-anchor="end" dominant-baseline="central">500</text><g transform="rotate(0,0,0) translate(-41,-256) translate(41,183) rotate(0,0,0)"><text fill="" stroke="none" font-family="helvetica" font-size="8pt" font-style="normal" font-weight="normal" text-decoration="normal" x="0" y="0" text-anchor="end" dominant-baseline="central">600</text><g transform="rotate(0,0,0) translate(-41,-183) translate(41,109) rotate(0,0,0)"><text fill="" stroke="none" font-family="helvetica" font-size="8pt" font-style="normal" font-weight="normal" text-decoration="normal" x="0" y="0" text-anchor="end" dominant-baseline="central">700</text><g transform="rotate(0,0,0) translate(-41,-109) translate(41,36) rotate(0,0,0)"><text fill="" stroke="none" font-family="helvetica" font-size="8pt" font-style="normal" font-weight="normal" text-decoration="normal" x="0" y="0" text-anchor="end" dominant-baseline="central">800</text><g transform="rotate(0,0,0) translate(-41,-36) translate(16,291) rotate(-90,0,0)"><text fill="" stroke="none" font-family="helvetica" font-size="10pt" font-style="italic" font-weight="normal" text-decoration="normal" x="0" y="0" text-anchor="middle" dominant-baseline="alphabetic">Price</text><g transform="rotate(90,0,0) translate(-16,-291)"/></g></g></g></g></g></g></g></g></g></g></g></g></g></svg>